<?xml version="1.0" encoding="UTF-8" standalone="no"?>
<svg
   version="1.1"
   x="0px"
   y="0px"
   viewBox="0 0 402.12399 362.22198"
   xml:space="preserve"
   id="svg129"
   sodipodi:docname="Table.svg"
   width="402.12399"
   height="362.22198"
   inkscape:version="1.3.2 (091e20e, 2023-11-25, custom)"
   xmlns:inkscape="http://www.inkscape.org/namespaces/inkscape"
   xmlns:sodipodi="http://sodipodi.sourceforge.net/DTD/sodipodi-0.dtd"
   xmlns="http://www.w3.org/2000/svg"
   xmlns:svg="http://www.w3.org/2000/svg"><defs
   id="defs129" /><sodipodi:namedview
   id="namedview129"
   pagecolor="#ffffff"
   bordercolor="#000000"
   borderopacity="0.25"
   inkscape:showpageshadow="2"
   inkscape:pageopacity="0.0"
   inkscape:pagecheckerboard="0"
   inkscape:deskcolor="#d1d1d1"
   inkscape:zoom="1.282"
   inkscape:cx="197.34789"
   inkscape:cy="190.71763"
   inkscape:window-width="1600"
   inkscape:window-height="837"
   inkscape:window-x="-8"
   inkscape:window-y="-8"
   inkscape:window-maximized="1"
   inkscape:current-layer="svg129" />

<g
   id="Objects"
   transform="rotate(90,254.1245,185.2355)">
	<g
   id="g129">
		<path
   style="fill:#999999"
   d="m 373.676,278.902 h -15.999 c -2.218,0 -4.015,1.798 -4.015,4.015 v 0 h -4.572 c -0.839,0 -1.643,0.141 -2.398,0.392 v -66.993 c 0.755,0.251 1.559,0.392 2.398,0.392 h 4.572 v 0 c 0,0.506 0.104,0.984 0.274,1.43 0.578,1.509 2.029,2.585 3.741,2.585 h 15.999 c 31.19,0 56.634,-24.995 57.398,-56.004 0.012,-0.477 0.036,-0.951 0.036,-1.43 0,-31.669 -25.765,-57.434 -57.434,-57.434 h -15.999 c -2.218,0 -4.015,1.798 -4.015,4.015 v 0 h -4.572 c -0.839,0 -1.643,0.141 -2.398,0.392 V 64.328 c 0,-1.67 -0.75,-3.151 -1.913,-4.172 -0.01,-0.009 -0.02,-0.016 -0.03,-0.025 -0.221,-0.191 -0.451,-0.37 -0.701,-0.525 -0.053,-0.034 -0.113,-0.059 -0.167,-0.091 -0.22,-0.126 -0.44,-0.252 -0.677,-0.348 -0.285,-0.117 -0.583,-0.209 -0.892,-0.277 -0.385,-0.084 -0.782,-0.134 -1.192,-0.134 h -28.984 v -0.619 h -124.49 v 0.619 h -28.365 c -1.965,0 -3.684,1.023 -4.676,2.56 -0.149,0.23 -0.279,0.473 -0.393,0.725 -0.055,0.122 -0.097,0.248 -0.144,0.375 -0.072,0.192 -0.133,0.388 -0.183,0.589 -0.027,0.111 -0.055,0.22 -0.076,0.334 -0.059,0.322 -0.1,0.65 -0.1,0.989 v 1.155 0 1.794 0 5.063 0 9.535 0 5.063 0 1.794 0 5.063 0 9.535 0 5.063 0 1.794 0 0.223 c -0.867,-0.344 -1.81,-0.539 -2.8,-0.539 h -4.572 v 0 c 0,-2.218 -1.798,-4.015 -4.015,-4.015 h -15.999 c -31.669,0 -57.434,25.765 -57.434,57.434 0,0.48 0.025,0.953 0.036,1.43 0.764,31.009 26.208,56.004 57.398,56.004 h 15.999 c 1.712,0 3.164,-1.076 3.741,-2.585 0.171,-0.446 0.274,-0.925 0.274,-1.43 v 0 h 4.572 c 0.99,0 1.933,-0.195 2.8,-0.539 v 1.291 0 5.063 0 9.535 0 5.063 0 1.794 0 5.063 0 9.535 0 5.063 0 1.795 0 5.063 0 9.535 0 5.063 0 1.794 0 1.632 c -0.867,-0.344 -1.81,-0.539 -2.8,-0.539 h -4.572 v 0 c 0,-2.218 -1.798,-4.015 -4.015,-4.015 h -15.999 c -31.669,0 -57.434,25.765 -57.434,57.434 0,0.48 0.025,0.953 0.036,1.43 0.764,31.009 26.208,56.004 57.398,56.004 h 15.999 c 1.712,0 3.164,-1.076 3.741,-2.585 0.171,-0.446 0.274,-0.924 0.274,-1.43 v 0 h 4.572 c 0.99,0 1.932,-0.195 2.8,-0.539 v 4.945 0 9.536 0 5.063 0 1.794 0 5.063 0 9.536 0 5.063 0 1.794 0 1.155 c 0,0.339 0.041,0.667 0.1,0.989 0.02,0.113 0.048,0.223 0.076,0.334 0.05,0.202 0.111,0.397 0.183,0.59 0.046,0.126 0.089,0.253 0.144,0.374 0.115,0.251 0.245,0.495 0.394,0.725 v 0 c 0.992,1.537 2.711,2.56 4.676,2.56 h 28.365 v 0.62 h 124.491 v -0.62 h 28.984 c 0.401,0 0.789,-0.046 1.166,-0.126 0.318,-0.068 0.624,-0.164 0.918,-0.285 0.237,-0.096 0.456,-0.221 0.676,-0.347 0.055,-0.032 0.114,-0.057 0.168,-0.091 0.249,-0.155 0.479,-0.333 0.7,-0.525 0.01,-0.009 0.021,-0.016 0.03,-0.025 1.164,-1.021 1.913,-2.502 1.913,-4.172 v -43.8 c 0.755,0.251 1.559,0.392 2.398,0.392 h 4.572 v 0 c 0,0.506 0.104,0.984 0.274,1.43 0.578,1.509 2.029,2.585 3.741,2.585 h 15.999 c 31.19,0 56.634,-24.995 57.398,-56.004 0.012,-0.477 0.036,-0.951 0.036,-1.43 0,-31.675 -25.765,-57.44 -57.435,-57.44 z"
   id="path1" />
		<g
   id="g10">
			<g
   id="g5">
				<path
   style="fill:#fedfb1"
   d="m 352.305,88.97 h -3.215 c -4.202,0 -7.608,3.406 -7.608,7.608 v 4.448 h 10.822 V 88.97 Z"
   id="path2" />
				<path
   style="fill:#fef2df"
   d="m 373.676,88.97 h -21.371 v 12.055 h 20.8 c 22.844,0 41.363,18.519 41.363,41.363 v 0 c 0,22.844 -18.519,41.363 -41.363,41.363 h -20.8 v 12.055 h 21.371 c 29.502,0 53.418,-23.916 53.418,-53.419 v 0 c 0.001,-29.5 -23.915,-53.417 -53.418,-53.417 z"
   id="path3" />
				<path
   style="fill:#fedfb1"
   d="m 341.483,183.752 v 4.447 c 0,4.202 3.406,7.608 7.608,7.608 h 3.215 v -12.055 z"
   id="path4" />
				<path
   style="fill:#333333"
   d="m 373.105,183.752 c 22.844,0 41.363,-18.519 41.363,-41.363 v 0 c 0,-22.844 -18.519,-41.363 -41.363,-41.363 h -20.8 v 82.727 h 20.8 z"
   id="path5" />
				<rect
   x="341.483"
   y="101.025"
   style="fill:#1a1a1a"
   width="10.822"
   height="82.726997"
   id="rect5" />
			</g>
			<g
   id="g9">
				<g
   id="g8">
					<path
   style="fill:#795548"
   d="m 357.678,87.815 h 15.999 c 31.19,0 56.634,24.995 57.398,56.004 0.012,-0.477 0.036,-0.951 0.036,-1.43 0,-31.669 -25.765,-57.434 -57.434,-57.434 h -15.999 c -2.218,0 -4.015,1.798 -4.015,4.015 0,0.506 0.104,0.985 0.274,1.43 0.577,-1.509 2.029,-2.585 3.741,-2.585 z"
   id="path6" />
					<path
   style="fill:#795548"
   d="m 357.678,194.652 h 15.999 c 27.241,0 49.403,-22.162 49.403,-49.403 0,-0.48 -0.023,-0.954 -0.036,-1.43 -0.761,26.58 -22.605,47.973 -49.367,47.973 h -15.999 c -2.218,0 -4.015,1.798 -4.015,4.015 0,0.506 0.104,0.985 0.274,1.43 0.577,-1.508 2.029,-2.585 3.741,-2.585 z"
   id="path7" />
					<path
   style="fill:#5d4037"
   d="m 357.678,199.823 h 15.999 c 31.19,0 56.634,-24.995 57.398,-56.004 -0.764,-31.009 -26.208,-56.004 -57.398,-56.004 h -15.999 c -1.712,0 -3.164,1.076 -3.741,2.585 0.578,1.509 2.029,2.585 3.741,2.585 h 15.999 c 27.241,0 49.403,22.162 49.403,49.403 0,0.48 -0.023,0.954 -0.036,1.43 0.014,0.476 0.036,0.951 0.036,1.43 0,27.241 -22.162,49.403 -49.403,49.403 h -15.999 c -1.712,0 -3.164,1.076 -3.741,2.585 0.577,1.511 2.029,2.587 3.741,2.587 z"
   id="path8" />
				</g>
			</g>
		</g>
		<g
   id="g18">
			<g
   id="g13">
				<path
   style="fill:#fedfb1"
   d="m 352.305,262.016 h -3.215 c -4.202,0 -7.608,3.406 -7.608,7.608 v 4.448 h 10.822 v -12.056 z"
   id="path10" />
				<path
   style="fill:#fef2df"
   d="m 373.676,262.016 h -21.371 v 12.055 h 20.8 c 22.844,0 41.363,18.519 41.363,41.363 v 0 c 0,22.844 -18.519,41.363 -41.363,41.363 h -20.8 v 12.055 h 21.371 c 29.502,0 53.418,-23.916 53.418,-53.419 v 0 c 0.001,-29.5 -23.915,-53.417 -53.418,-53.417 z"
   id="path11" />
				<path
   style="fill:#fedfb1"
   d="m 341.483,356.798 v 4.448 c 0,4.202 3.406,7.608 7.608,7.608 h 3.215 v -12.055 h -10.823 z"
   id="path12" />
				<path
   style="fill:#333333"
   d="m 373.105,356.798 c 22.844,0 41.363,-18.519 41.363,-41.363 v 0 c 0,-22.844 -18.519,-41.363 -41.363,-41.363 h -20.8 v 82.727 h 20.8 z"
   id="path13" />
				<rect
   x="341.483"
   y="274.07199"
   style="fill:#1a1a1a"
   width="10.822"
   height="82.726997"
   id="rect13" />
			</g>
			<g
   id="g17">
				<g
   id="g16">
					<path
   style="fill:#795548"
   d="m 357.678,260.861 h 15.999 c 31.19,0 56.634,24.995 57.398,56.004 0.012,-0.477 0.036,-0.951 0.036,-1.43 0,-31.669 -25.765,-57.434 -57.434,-57.434 h -15.999 c -2.218,0 -4.015,1.798 -4.015,4.016 0,0.505 0.104,0.984 0.274,1.43 0.577,-1.509 2.029,-2.586 3.741,-2.586 z"
   id="path14" />
					<path
   style="fill:#795548"
   d="m 357.678,367.698 h 15.999 c 27.241,0 49.403,-22.162 49.403,-49.403 0,-0.48 -0.023,-0.954 -0.036,-1.43 -0.761,26.58 -22.605,47.973 -49.367,47.973 h -15.999 c -2.218,0 -4.015,1.798 -4.015,4.015 0,0.506 0.104,0.985 0.274,1.43 0.577,-1.508 2.029,-2.585 3.741,-2.585 z"
   id="path15" />
					<path
   style="fill:#5d4037"
   d="m 357.678,372.869 h 15.999 c 31.19,0 56.634,-24.995 57.398,-56.004 -0.764,-31.009 -26.208,-56.004 -57.398,-56.004 h -15.999 c -1.712,0 -3.164,1.076 -3.741,2.585 0.578,1.509 2.029,2.585 3.741,2.585 h 15.999 c 27.241,0 49.403,22.162 49.403,49.403 0,0.48 -0.023,0.954 -0.036,1.43 0.014,0.476 0.036,0.951 0.036,1.43 0,27.241 -22.162,49.403 -49.403,49.403 h -15.999 c -1.712,0 -3.164,1.076 -3.741,2.585 0.577,1.511 2.029,2.587 3.741,2.587 z"
   id="path16" />
				</g>
			</g>
		</g>
		<g
   id="g26">
			<g
   id="g21">
				<path
   style="fill:#fedfb1"
   d="m 147.695,88.97 h 3.215 c 4.202,0 7.608,3.406 7.608,7.608 v 4.448 H 147.696 V 88.97 Z"
   id="path18" />
				<path
   style="fill:#fef2df"
   d="m 126.324,88.97 h 21.371 v 12.055 h -20.8 c -22.844,0 -41.363,18.519 -41.363,41.363 v 0 c 0,22.844 18.519,41.363 41.363,41.363 h 20.8 v 12.055 h -21.371 c -29.502,0 -53.419,-23.916 -53.419,-53.419 v 0 c 0,-29.5 23.916,-53.417 53.419,-53.417 z"
   id="path19" />
				<path
   style="fill:#fedfb1"
   d="m 158.517,183.752 v 4.447 c 0,4.202 -3.406,7.608 -7.608,7.608 h -3.215 v -12.055 z"
   id="path20" />
				<path
   style="fill:#333333"
   d="m 126.895,183.752 c -22.844,0 -41.363,-18.519 -41.363,-41.363 v 0 c 0,-22.844 18.519,-41.363 41.363,-41.363 h 20.8 v 82.727 h -20.8 z"
   id="path21" />
				<rect
   x="147.69501"
   y="101.025"
   style="fill:#1a1a1a"
   width="10.823"
   height="82.726997"
   id="rect21" />
			</g>
			<g
   id="g25">
				<g
   id="g24">
					<path
   style="fill:#795548"
   d="m 142.322,87.815 h -15.999 c -31.19,0 -56.634,24.995 -57.398,56.004 -0.012,-0.477 -0.036,-0.951 -0.036,-1.43 0,-31.669 25.765,-57.434 57.434,-57.434 h 15.999 c 2.218,0 4.015,1.798 4.015,4.015 0,0.506 -0.104,0.985 -0.274,1.43 -0.577,-1.509 -2.029,-2.585 -3.741,-2.585 z"
   id="path22" />
					<path
   style="fill:#795548"
   d="m 142.322,194.652 h -15.999 c -27.241,0 -49.403,-22.162 -49.403,-49.403 0,-0.48 0.023,-0.954 0.036,-1.43 0.761,26.58 22.605,47.973 49.367,47.973 h 15.999 c 2.218,0 4.015,1.798 4.015,4.015 0,0.506 -0.104,0.985 -0.274,1.43 -0.577,-1.508 -2.029,-2.585 -3.741,-2.585 z"
   id="path23" />
					<path
   style="fill:#5d4037"
   d="m 142.322,199.823 h -15.999 c -31.19,0 -56.634,-24.995 -57.398,-56.004 0.764,-31.009 26.208,-56.004 57.398,-56.004 h 15.999 c 1.712,0 3.164,1.076 3.741,2.585 -0.578,1.509 -2.029,2.585 -3.741,2.585 h -15.999 c -27.241,0 -49.403,22.162 -49.403,49.403 0,0.48 0.023,0.954 0.036,1.43 -0.014,0.476 -0.036,0.951 -0.036,1.43 0,27.241 22.162,49.403 49.403,49.403 h 15.999 c 1.712,0 3.164,1.076 3.741,2.585 -0.577,1.511 -2.029,2.587 -3.741,2.587 z"
   id="path24" />
				</g>
			</g>
		</g>
		<g
   id="g34">
			<g
   id="g29">
				<path
   style="fill:#fedfb1"
   d="m 147.695,262.016 h 3.215 c 4.202,0 7.608,3.406 7.608,7.608 v 4.448 h -10.822 v -12.056 z"
   id="path26" />
				<path
   style="fill:#fef2df"
   d="m 126.324,262.016 h 21.371 v 12.055 h -20.8 c -22.844,0 -41.363,18.519 -41.363,41.363 v 0 c 0,22.844 18.519,41.363 41.363,41.363 h 20.8 v 12.055 h -21.371 c -29.502,0 -53.419,-23.916 -53.419,-53.419 v 0 c 0,-29.5 23.916,-53.417 53.419,-53.417 z"
   id="path27" />
				<path
   style="fill:#fedfb1"
   d="m 158.517,356.798 v 4.448 c 0,4.202 -3.406,7.608 -7.608,7.608 h -3.215 v -12.055 h 10.823 z"
   id="path28" />
				<path
   style="fill:#333333"
   d="m 126.895,356.798 c -22.844,0 -41.363,-18.519 -41.363,-41.363 v 0 c 0,-22.844 18.519,-41.363 41.363,-41.363 h 20.8 v 82.727 h -20.8 z"
   id="path29" />
				<rect
   x="147.69501"
   y="274.07199"
   style="fill:#1a1a1a"
   width="10.823"
   height="82.726997"
   id="rect29" />
			</g>
			<g
   id="g33">
				<g
   id="g32">
					<path
   style="fill:#795548"
   d="m 142.322,260.861 h -15.999 c -31.19,0 -56.634,24.995 -57.398,56.004 -0.012,-0.477 -0.036,-0.951 -0.036,-1.43 0,-31.669 25.765,-57.434 57.434,-57.434 h 15.999 c 2.218,0 4.015,1.798 4.015,4.016 0,0.505 -0.104,0.984 -0.274,1.43 -0.577,-1.509 -2.029,-2.586 -3.741,-2.586 z"
   id="path30" />
					<path
   style="fill:#795548"
   d="m 142.322,367.698 h -15.999 c -27.241,0 -49.403,-22.162 -49.403,-49.403 0,-0.48 0.023,-0.954 0.036,-1.43 0.761,26.58 22.605,47.973 49.367,47.973 h 15.999 c 2.218,0 4.015,1.798 4.015,4.015 0,0.506 -0.104,0.985 -0.274,1.43 -0.577,-1.508 -2.029,-2.585 -3.741,-2.585 z"
   id="path31" />
					<path
   style="fill:#5d4037"
   d="m 142.322,372.869 h -15.999 c -31.19,0 -56.634,-24.995 -57.398,-56.004 0.764,-31.009 26.208,-56.004 57.398,-56.004 h 15.999 c 1.712,0 3.164,1.076 3.741,2.585 -0.578,1.509 -2.029,2.585 -3.741,2.585 h -15.999 c -27.241,0 -49.403,22.162 -49.403,49.403 0,0.48 0.023,0.954 0.036,1.43 -0.014,0.476 -0.036,0.951 -0.036,1.43 0,27.241 22.162,49.403 49.403,49.403 h 15.999 c 1.712,0 3.164,1.076 3.741,2.585 -0.577,1.511 -2.029,2.587 -3.741,2.587 z"
   id="path32" />
				</g>
			</g>
		</g>
		<g
   id="g35">
			<path
   style="fill:#795548"
   d="M 153.71,412.262 V 43.427 c 0,-3.077 2.495,-5.571 5.572,-5.571 h 181.84 c 3.077,0 5.572,2.494 5.572,5.571 v 368.835 c 0,3.077 -2.494,5.571 -5.572,5.571 h -181.84 c -3.078,0 -5.572,-2.494 -5.572,-5.571 z"
   id="path34" />
		</g>
		<g
   id="g37">
			
				<rect
   x="59.283001"
   y="165.599"
   transform="rotate(90,249.8913,227.8443)"
   style="fill:#fea626"
   width="381.216"
   height="124.491"
   id="rect35" />
			<g
   id="g36">
				
					<line
   style="fill:none;stroke:#fef2df;stroke-width:1.7901;stroke-miterlimit:10"
   x1="306.789"
   y1="37.236"
   x2="306.789"
   y2="418.453"
   id="line35" />
				
					<line
   style="fill:none;stroke:#fef2df;stroke-width:1.7901;stroke-miterlimit:10"
   x1="192.993"
   y1="37.236"
   x2="192.993"
   y2="418.453"
   id="line36" />
			</g>
		</g>
		<g
   id="g72">
			<circle
   style="fill:#fe9700"
   cx="251.218"
   cy="229.461"
   r="24.496"
   id="circle37" />
			<circle
   style="fill:#fef2df"
   cx="249.133"
   cy="227.37601"
   r="24.496"
   id="circle38" />
			<g
   id="g39">
				<path
   style="fill:#fecb80"
   d="m 250.228,207.121 c 5.617,0 10.711,2.186 14.523,5.732 -3.898,-4.19 -9.443,-6.826 -15.617,-6.826 -11.791,0 -21.349,9.558 -21.349,21.349 0,6.174 2.637,11.719 6.827,15.617 -3.546,-3.811 -5.732,-8.906 -5.732,-14.523 -0.001,-11.791 9.557,-21.349 21.348,-21.349 z"
   id="path38" />
				<path
   style="fill:#fedfb1"
   d="m 270.482,227.376 c 0,-5.617 -2.186,-10.711 -5.732,-14.523 -3.811,-3.546 -8.906,-5.732 -14.523,-5.732 -11.791,0 -21.349,9.558 -21.349,21.349 0,5.617 2.186,10.711 5.732,14.523 3.812,3.546 8.906,5.732 14.523,5.732 11.791,0 21.349,-9.559 21.349,-21.349 z"
   id="path39" />
			</g>
			<g
   id="g71">
				<g
   id="g52">
					<path
   style="opacity:0.16;fill:#5d4037"
   d="m 250.801,214.991 c 1.654,1.745 3.708,6.449 3.708,6.449 1.011,-0.163 2.61,0.979 2.545,2.414 -0.522,1.827 -4.05,4.966 -6.138,5.586 -1.457,0.432 -2.904,-1.142 -2.708,-3.034 -1.501,-0.261 -5.317,-3.014 -6.525,-4.672 1.011,-3.68 5.937,-7.392 9.118,-6.743 z"
   id="path40" />
					<g
   id="g51">
						<g
   id="g42">
							<path
   style="fill:#ced7db"
   d="m 247.36,213.821 c 1.295,0 2.486,0.439 3.441,1.169 -1.037,-1.357 -2.668,-2.236 -4.507,-2.236 -3.135,0 -5.677,2.542 -5.677,5.677 0,1.84 0.879,3.47 2.236,4.508 -0.73,-0.955 -1.169,-2.146 -1.169,-3.441 -0.001,-3.135 2.541,-5.677 5.676,-5.677 z"
   id="path41" />
							<path
   style="fill:#afbdc4"
   d="m 251.97,218.432 c 0,-1.296 -0.439,-2.486 -1.169,-3.441 -0.955,-0.73 -2.146,-1.169 -3.441,-1.169 -3.135,0 -5.677,2.542 -5.677,5.677 0,1.296 0.439,2.486 1.169,3.441 0.955,0.73 2.146,1.169 3.441,1.169 3.136,-0.001 5.677,-2.542 5.677,-5.677 z"
   id="path42" />
						</g>
						<g
   id="g50">
							<g
   id="g45">
								<circle
   style="fill:#37474f"
   cx="244.078"
   cy="216.657"
   r="0.65600002"
   id="circle42" />
								<path
   style="fill:#37474f"
   d="m 247.688,216.657 c 0,0.362 -0.294,0.656 -0.656,0.656 -0.362,0 -0.656,-0.294 -0.656,-0.656 0,-0.362 0.294,-0.656 0.656,-0.656 0.362,-0.001 0.656,0.293 0.656,0.656 z"
   id="path43" />
								<path
   style="fill:#37474f"
   d="m 246.211,217.774 c 0,0.362 -0.294,0.656 -0.656,0.656 -0.362,0 -0.656,-0.294 -0.656,-0.656 0,-0.362 0.294,-0.656 0.656,-0.656 0.362,0 0.656,0.293 0.656,0.656 z"
   id="path44" />
								<path
   style="fill:#37474f"
   d="m 249.165,217.774 c 0,0.362 -0.294,0.656 -0.656,0.656 -0.362,0 -0.656,-0.294 -0.656,-0.656 0,-0.362 0.294,-0.656 0.656,-0.656 0.362,0 0.656,0.293 0.656,0.656 z"
   id="path45" />
							</g>
							<g
   id="g49">
								<path
   style="fill:#37474f"
   d="m 244.735,218.816 c 0,0.362 -0.294,0.656 -0.656,0.656 -0.362,0 -0.656,-0.294 -0.656,-0.656 0,-0.362 0.294,-0.656 0.656,-0.656 0.362,0 0.656,0.294 0.656,0.656 z"
   id="path46" />
								<path
   style="fill:#37474f"
   d="m 247.688,218.816 c 0,0.362 -0.294,0.656 -0.656,0.656 -0.362,0 -0.656,-0.294 -0.656,-0.656 0,-0.362 0.294,-0.656 0.656,-0.656 0.362,0 0.656,0.294 0.656,0.656 z"
   id="path47" />
								<path
   style="fill:#37474f"
   d="m 246.211,219.933 c 0,0.362 -0.294,0.656 -0.656,0.656 -0.362,0 -0.656,-0.294 -0.656,-0.656 0,-0.362 0.294,-0.656 0.656,-0.656 0.362,0 0.656,0.294 0.656,0.656 z"
   id="path48" />
								<path
   style="fill:#37474f"
   d="m 249.165,219.933 c 0,0.362 -0.294,0.656 -0.656,0.656 -0.362,0 -0.656,-0.294 -0.656,-0.656 0,-0.362 0.294,-0.656 0.656,-0.656 0.362,0 0.656,0.294 0.656,0.656 z"
   id="path49" />
							</g>
						</g>
					</g>
				</g>
				<g
   id="g59">
					<path
   style="opacity:0.16;fill:#5d4037"
   d="m 261.739,225.929 c 1.654,1.745 3.708,6.449 3.708,6.449 1.011,-0.163 2.61,0.979 2.545,2.414 -0.522,1.827 -4.05,4.966 -6.138,5.586 -1.457,0.432 -2.903,-1.142 -2.708,-3.034 -1.501,-0.261 -5.317,-3.014 -6.524,-4.672 1.01,-3.68 5.936,-7.392 9.117,-6.743 z"
   id="path52" />
					<g
   id="g58">
						<g
   id="g54">
							<path
   style="fill:#ced7db"
   d="m 258.298,224.759 c 1.296,0 2.486,0.439 3.441,1.169 -1.037,-1.357 -2.668,-2.236 -4.508,-2.236 -3.135,0 -5.677,2.542 -5.677,5.677 0,1.84 0.879,3.47 2.236,4.507 -0.73,-0.955 -1.169,-2.146 -1.169,-3.441 0,-3.134 2.542,-5.676 5.677,-5.676 z"
   id="path53" />
							<path
   style="fill:#afbdc4"
   d="m 262.908,229.37 c 0,-1.296 -0.439,-2.486 -1.169,-3.441 -0.955,-0.73 -2.146,-1.169 -3.441,-1.169 -3.135,0 -5.677,2.542 -5.677,5.677 0,1.295 0.439,2.486 1.169,3.441 0.955,0.73 2.146,1.169 3.441,1.169 3.136,-0.001 5.677,-2.542 5.677,-5.677 z"
   id="path54" />
						</g>
						<path
   style="fill:#37474f"
   d="m 253.122,228.474 c -0.815,-0.13 -0.625,-1.628 0.587,-2.726 1.21,-1.096 2.123,-1.055 2.367,-0.644 0.303,0.511 -0.568,0.814 -1.401,1.704 -0.892,0.952 -0.72,1.799 -1.553,1.666 z"
   id="path55" />
						<g
   id="g57">
							<path
   style="fill:#37474f"
   d="m 261.118,232.528 c 0,0.244 -0.198,0.443 -0.443,0.443 -0.244,0 -0.443,-0.198 -0.443,-0.443 0,-0.245 0.198,-0.443 0.443,-0.443 0.244,0 0.443,0.199 0.443,0.443 z"
   id="path56" />
							<circle
   style="fill:#37474f"
   cx="261.57599"
   cy="231.327"
   r="0.44299999"
   id="circle56" />
							<circle
   style="fill:#37474f"
   cx="259.48901"
   cy="233.414"
   r="0.44299999"
   id="circle57" />
						</g>
					</g>
				</g>
				<g
   id="g70">
					<path
   style="opacity:0.16;fill:#5d4037"
   d="m 246.656,229.05 c 1.654,1.745 3.708,6.449 3.708,6.449 1.011,-0.163 2.61,0.979 2.545,2.414 -0.522,1.827 -4.05,4.966 -6.138,5.586 -1.456,0.432 -2.904,-1.142 -2.708,-3.034 -1.501,-0.261 -5.317,-3.014 -6.524,-4.672 1.01,-3.68 5.936,-7.392 9.117,-6.743 z"
   id="path59" />
					<g
   id="g69">
						<g
   id="g61">
							<path
   style="fill:#ced7db"
   d="m 243.215,227.881 c 1.295,0 2.486,0.439 3.441,1.169 -1.037,-1.357 -2.668,-2.236 -4.507,-2.236 -3.135,0 -5.677,2.542 -5.677,5.677 0,1.84 0.879,3.47 2.236,4.507 -0.73,-0.955 -1.169,-2.146 -1.169,-3.441 -10e-4,-3.135 2.54,-5.676 5.676,-5.676 z"
   id="path60" />
							<path
   style="fill:#afbdc4"
   d="m 247.825,232.491 c 0,-1.296 -0.439,-2.486 -1.169,-3.441 -0.955,-0.73 -2.145,-1.169 -3.441,-1.169 -3.135,0 -5.677,2.542 -5.677,5.677 0,1.296 0.439,2.486 1.169,3.441 0.955,0.73 2.145,1.169 3.441,1.169 3.135,0 5.677,-2.542 5.677,-5.677 z"
   id="path61" />
						</g>
						<g
   id="g68">
							<g
   id="g64">
								<path
   style="fill:#37474f"
   d="m 240.589,230.716 c 0,0.362 -0.294,0.656 -0.656,0.656 -0.362,0 -0.656,-0.294 -0.656,-0.656 0,-0.362 0.294,-0.656 0.656,-0.656 0.363,0 0.656,0.293 0.656,0.656 z"
   id="path62" />
								<path
   style="fill:#37474f"
   d="m 243.543,230.716 c 0,0.362 -0.294,0.656 -0.656,0.656 -0.362,0 -0.656,-0.294 -0.656,-0.656 0,-0.362 0.294,-0.656 0.656,-0.656 0.362,0 0.656,0.293 0.656,0.656 z"
   id="path63" />
								<path
   style="fill:#37474f"
   d="m 242.066,231.833 c 0,0.362 -0.294,0.656 -0.656,0.656 -0.362,0 -0.656,-0.294 -0.656,-0.656 0,-0.362 0.294,-0.656 0.656,-0.656 0.362,0 0.656,0.293 0.656,0.656 z"
   id="path64" />
								<circle
   style="fill:#37474f"
   cx="244.36301"
   cy="231.83299"
   r="0.65600002"
   id="circle64" />
							</g>
							<g
   id="g67">
								<path
   style="fill:#37474f"
   d="m 240.589,232.875 c 0,0.362 -0.294,0.656 -0.656,0.656 -0.362,0 -0.656,-0.294 -0.656,-0.656 0,-0.362 0.294,-0.656 0.656,-0.656 0.363,0 0.656,0.294 0.656,0.656 z"
   id="path65" />
								<path
   style="fill:#37474f"
   d="m 243.543,232.875 c 0,0.362 -0.294,0.656 -0.656,0.656 -0.362,0 -0.656,-0.294 -0.656,-0.656 0,-0.362 0.294,-0.656 0.656,-0.656 0.362,0 0.656,0.294 0.656,0.656 z"
   id="path66" />
								<path
   style="fill:#37474f"
   d="m 242.066,233.993 c 0,0.362 -0.294,0.656 -0.656,0.656 -0.362,0 -0.656,-0.294 -0.656,-0.656 0,-0.362 0.294,-0.656 0.656,-0.656 0.362,-10e-4 0.656,0.293 0.656,0.656 z"
   id="path67" />
								<circle
   style="fill:#37474f"
   cx="244.36301"
   cy="233.993"
   r="0.65600002"
   id="circle67" />
							</g>
						</g>
					</g>
				</g>
			</g>
		</g>
		<g
   id="g86">
			<path
   style="fill:#5d4037"
   d="m 343.102,84.796 v 117.242 c 0,1.905 -1.545,3.45 -3.45,3.45 h -51.923 c -1.905,0 -3.45,-1.545 -3.45,-3.45 V 84.796 c 0,-1.905 1.544,-3.45 3.45,-3.45 h 51.923 c 1.905,0 3.45,1.544 3.45,3.45 z"
   id="path72" />
			<path
   style="fill:#3e2723"
   d="m 343.102,83.525 v 117.242 c 0,1.905 -1.545,3.45 -3.45,3.45 h -51.923 c -1.905,0 -3.45,-1.544 -3.45,-3.45 V 83.525 c 0,-1.905 1.544,-3.45 3.45,-3.45 h 51.923 c 1.905,10e-4 3.45,1.545 3.45,3.45 z"
   id="path73" />
			<g
   id="g74">
				<polygon
   style="fill:#5d4037"
   points="290.564,113.76 292.44,115.636 290.564,117.512 292.44,119.388 290.564,121.263 292.44,123.139 290.564,125.015 292.44,126.89 290.564,128.766 292.44,130.642 290.564,132.517 292.44,134.393 290.564,136.269 292.44,138.144 290.564,140.02 292.44,141.896 290.564,143.771 292.44,145.647 290.564,147.523 292.44,149.398 290.564,151.274 292.44,153.15 290.564,155.026 292.44,156.901 290.564,158.777 292.44,160.653 290.564,162.528 292.44,164.404 290.564,166.28 292.44,168.155 290.564,170.031 292.44,171.907 290.564,173.782 292.44,175.658 290.564,177.534 292.44,179.409 290.564,181.285 292.44,183.161 290.564,185.036 292.44,186.912 290.564,188.788 292.44,190.663 290.564,192.539 292.44,194.415 290.564,196.291 292.44,198.166 290.564,200.042 292.54,202.017 294.516,200.042 292.64,198.166 294.516,196.291 292.64,194.415 294.516,192.539 292.64,190.663 294.516,188.788 292.64,186.912 294.516,185.036 292.64,183.161 294.516,181.285 292.64,179.409 294.516,177.534 292.64,175.658 294.516,173.782 292.64,171.907 294.516,170.031 292.64,168.155 294.516,166.28 292.64,164.404 294.516,162.528 292.64,160.653 294.516,158.777 292.64,156.901 294.516,155.026 292.64,153.15 294.516,151.274 292.64,149.398 294.516,147.523 292.64,145.647 294.516,143.771 292.64,141.896 294.516,140.02 292.64,138.144 294.516,136.269 292.64,134.393 294.516,132.517 292.64,130.642 294.516,128.766 292.64,126.89 294.516,125.015 292.64,123.139 294.516,121.263 292.64,119.388 294.516,117.512 292.64,115.636 294.516,113.76 292.64,111.885 294.516,110.009 292.64,108.133 294.516,106.258 292.64,104.382 294.516,102.506 292.64,100.631 294.516,98.755 292.64,96.879 294.516,95.004 292.64,93.128 294.516,91.252 292.64,89.377 294.516,87.501 292.64,85.625 294.516,83.75 292.54,81.774 290.564,83.75 292.44,85.625 290.564,87.501 292.44,89.377 290.564,91.252 292.44,93.128 290.564,95.004 292.44,96.879 290.564,98.755 292.44,100.631 290.564,102.506 292.44,104.382 290.564,106.258 292.44,108.133 290.564,110.009 292.44,111.885 "
   id="polygon73" />
				<polygon
   style="fill:#5d4037"
   points="331.646,113.76 333.521,115.636 331.646,117.512 333.521,119.388 331.646,121.263 333.521,123.139 331.646,125.015 333.521,126.89 331.646,128.766 333.521,130.642 331.646,132.517 333.521,134.393 331.646,136.269 333.521,138.144 331.646,140.02 333.521,141.896 331.646,143.771 333.521,145.647 331.646,147.523 333.521,149.398 331.646,151.274 333.521,153.15 331.646,155.026 333.521,156.901 331.646,158.777 333.521,160.653 331.646,162.528 333.521,164.404 331.646,166.28 333.521,168.155 331.646,170.031 333.521,171.907 331.646,173.782 333.521,175.658 331.646,177.534 333.521,179.409 331.646,181.285 333.521,183.161 331.646,185.036 333.521,186.912 331.646,188.788 333.521,190.663 331.646,192.539 333.521,194.415 331.646,196.291 333.521,198.166 331.646,200.042 333.621,202.017 335.597,200.042 333.721,198.166 335.597,196.291 333.721,194.415 335.597,192.539 333.721,190.663 335.597,188.788 333.721,186.912 335.597,185.036 333.721,183.161 335.597,181.285 333.721,179.409 335.597,177.534 333.721,175.658 335.597,173.782 333.721,171.907 335.597,170.031 333.721,168.155 335.597,166.28 333.721,164.404 335.597,162.528 333.721,160.653 335.597,158.777 333.721,156.901 335.597,155.026 333.721,153.15 335.597,151.274 333.721,149.398 335.597,147.523 333.721,145.647 335.597,143.771 333.721,141.896 335.597,140.02 333.721,138.144 335.597,136.269 333.721,134.393 335.597,132.517 333.721,130.642 335.597,128.766 333.721,126.89 335.597,125.015 333.721,123.139 335.597,121.263 333.721,119.388 335.597,117.512 333.721,115.636 335.597,113.76 333.721,111.885 335.597,110.009 333.721,108.133 335.597,106.258 333.721,104.382 335.597,102.506 333.721,100.631 335.597,98.755 333.721,96.879 335.597,95.004 333.721,93.128 335.597,91.252 333.721,89.377 335.597,87.501 333.721,85.625 335.597,83.75 333.621,81.774 331.646,83.75 333.521,85.625 331.646,87.501 333.521,89.377 331.646,91.252 333.521,93.128 331.646,95.004 333.521,96.879 331.646,98.755 333.521,100.631 331.646,102.506 333.521,104.382 331.646,106.258 333.521,108.133 331.646,110.009 333.521,111.885 "
   id="polygon74" />
			</g>
			<polygon
   style="opacity:0.36;fill:#3e2723"
   points="295.006,112.62 296.97,112.62 333.188,112.62 335.153,112.62 341.626,112.62 315.079,86.073 288.532,112.62 "
   id="polygon75" />
			<g
   id="g78">
				<polygon
   style="fill:#ffffff"
   points="341.626,110.53 288.532,110.53 315.079,83.983 "
   id="polygon76" />
				<g
   id="g77">
					<polygon
   style="fill:#afbdc4"
   points="296.97,110.53 295.006,110.53 315.079,90.456 335.153,110.53 333.188,110.53 315.079,92.421 "
   id="polygon77" />
				</g>
			</g>
			<path
   style="opacity:0.36;fill:#3e2723"
   d="m 334.23,181.481 v 0 c -0.004,-3.55 -3.352,-2.358 -7.985,-1.945 -4.635,0.413 -16.138,1.076 -16.668,1.122 -0.472,0.04 -1.136,0.085 -1.81,-1.102 -0.615,-1.896 -2.271,-3.237 -5.424,-3.237 -4.144,0 -7.503,2.311 -7.503,5.163 0,2.851 3.359,5.163 7.503,5.163 3.148,0 4.804,-1.337 5.421,-3.228 0.675,-1.191 1.34,-1.147 1.812,-1.106 0.53,0.045 12.033,0.709 16.668,1.122 4.633,0.413 7.981,1.605 7.985,-1.946 v 0 c 0,-0.001 0,-0.002 0,-0.002 0.001,-0.003 0.001,-0.004 0.001,-0.004 z m -0.209,10.478 c -0.069,-3.421 -3.392,-2.257 -7.978,-1.848 -4.635,0.413 -16.138,1.076 -16.668,1.122 -0.472,0.04 -1.136,0.085 -1.81,-1.102 -0.801,-1.461 -2.021,-1.676 -3.503,-1.676 h -8.037 c -0.981,0 -1.004,0.622 0.072,0.622 1.076,0 7.319,0.55 7.989,0.646 0.67,0.096 0.933,0.359 -0.048,0.478 -0.981,0.119 -7.614,0.311 -8.404,0.383 -0.79,0.072 -0.765,0.478 -0.024,0.55 0.741,0.072 7.973,0.359 8.38,0.407 0.397,0.047 0.642,0.233 0.642,0.425 0,0.192 -0.245,0.378 -0.642,0.425 -0.407,0.048 -7.638,0.335 -8.38,0.407 -0.741,0.072 -0.765,0.478 0.024,0.55 0.789,0.072 7.423,0.263 8.404,0.383 0.981,0.12 0.717,0.383 0.048,0.478 -0.67,0.096 -6.912,0.646 -7.989,0.646 -1.076,0 -1.052,0.622 -0.072,0.622 h 8.037 c 1.483,0 2.703,-0.215 3.503,-1.676 0.674,-1.187 1.338,-1.142 1.81,-1.102 0.53,0.045 12.033,0.709 16.668,1.122 4.587,0.409 7.909,1.573 7.978,-1.848 h 10e-4 c 0,-0.002 0,-0.004 0,-0.006 0,-0.004 0,-0.006 -10e-4,-0.008 z"
   id="path78" />
			<g
   id="g81">
				<path
   style="fill:#ced7db"
   d="m 307.767,177.465 c -0.615,-1.896 -2.271,-3.237 -5.424,-3.237 -4.144,0 -7.503,2.311 -7.503,5.163 0,2.851 3.359,5.163 7.503,5.163 3.148,0 4.804,-1.337 5.421,-3.228 0.675,-1.191 1.34,-1.147 1.812,-1.106 0.53,0.045 12.033,0.709 16.668,1.122 4.633,0.413 7.981,1.605 7.985,-1.945 v 0 c 0,-0.001 0,-0.002 0,-0.002 0,-0.001 0,-0.002 0,-0.002 v 0 c -0.003,-3.55 -3.352,-2.358 -7.985,-1.945 -4.635,0.413 -16.138,1.076 -16.668,1.122 -0.471,0.037 -1.135,0.081 -1.809,-1.105 z"
   id="path79" />
				<g
   id="g80">
					<path
   style="fill:#ced7db"
   d="m 296.097,186.986 c 1.076,0 7.319,0.55 7.989,0.646 0.67,0.096 0.933,0.359 -0.048,0.478 -0.981,0.119 -7.614,0.311 -8.404,0.383 -0.789,0.072 -0.765,0.478 -0.024,0.55 0.741,0.072 7.973,0.359 8.38,0.406 0.397,0.047 0.642,0.233 0.642,0.425 0,0.193 -0.245,0.378 -0.642,0.425 -0.407,0.048 -7.638,0.335 -8.38,0.406 -0.741,0.072 -0.765,0.478 0.024,0.55 0.789,0.072 7.423,0.263 8.404,0.383 0.981,0.12 0.718,0.383 0.048,0.478 -0.67,0.096 -6.912,0.646 -7.989,0.646 -1.076,0 -1.052,0.622 -0.072,0.622 h 8.037 c 1.483,0 2.703,-0.215 3.503,-1.676 0.674,-1.187 1.338,-1.142 1.81,-1.102 0.53,0.045 12.033,0.709 16.668,1.122 4.586,0.409 7.909,1.573 7.978,-1.848 h 10e-4 c 0,-0.002 0,-0.003 0,-0.006 0,-0.002 0,-0.003 0,-0.006 h -10e-4 c -0.069,-3.422 -3.392,-2.257 -7.978,-1.848 -4.635,0.413 -16.138,1.076 -16.668,1.122 -0.472,0.04 -1.136,0.085 -1.81,-1.102 -0.801,-1.461 -2.021,-1.677 -3.503,-1.677 h -8.037 c -0.981,0.001 -1.005,0.623 0.072,0.623 z"
   id="path80" />
				</g>
			</g>
			<path
   style="opacity:0.36;fill:#3e2723"
   d="m 316.127,114.81 c -0.351,-0.012 -0.694,-0.053 -1.048,-0.053 -16.788,0 -30.397,13.609 -30.397,30.397 0,16.788 13.609,30.397 30.397,30.397 0.354,0 0.697,-0.041 1.048,-0.053 16.299,-0.557 29.349,-13.91 29.349,-30.345 10e-4,-16.433 -13.05,-29.786 -29.349,-30.343 z"
   id="path81" />
			<g
   id="g85">
				<path
   style="fill:#ffffff"
   d="m 284.682,143.065 c 0,16.788 13.609,30.397 30.397,30.397 0.354,0 0.697,-0.041 1.048,-0.053 16.299,-0.557 29.349,-13.91 29.349,-30.344 0,-16.434 -13.051,-29.788 -29.349,-30.345 -0.351,-0.012 -0.694,-0.053 -1.048,-0.053 -16.788,0 -30.397,13.609 -30.397,30.398 z"
   id="path82" />
				<g
   id="g84">
					<path
   style="fill:#baddf9"
   d="m 295.414,143.065 c 0,-11.42 9.068,-20.698 20.394,-21.085 -0.244,-0.008 -0.482,-0.037 -0.728,-0.037 -11.665,0 -21.122,9.457 -21.122,21.122 0,11.665 9.457,21.122 21.122,21.122 0.246,0 0.484,-0.029 0.728,-0.037 -11.326,-0.387 -20.394,-9.666 -20.394,-21.085 z"
   id="path83" />
					<path
   style="fill:#e3f1fc"
   d="m 336.201,143.065 c 0,-11.42 -9.069,-20.698 -20.394,-21.085 -11.325,0.387 -20.394,9.666 -20.394,21.085 0,11.419 9.068,20.698 20.394,21.085 11.326,-0.387 20.394,-9.666 20.394,-21.085 z"
   id="path84" />
				</g>
			</g>
		</g>
		<g
   id="g100">
			<path
   style="fill:#5d4037"
   d="m 343.102,257.327 v 117.242 c 0,1.905 -1.545,3.45 -3.45,3.45 h -51.923 c -1.905,0 -3.45,-1.544 -3.45,-3.45 V 257.327 c 0,-1.905 1.544,-3.45 3.45,-3.45 h 51.923 c 1.905,0 3.45,1.545 3.45,3.45 z"
   id="path86" />
			<path
   style="fill:#3e2723"
   d="m 343.102,256.057 v 117.242 c 0,1.905 -1.545,3.45 -3.45,3.45 h -51.923 c -1.905,0 -3.45,-1.545 -3.45,-3.45 V 256.057 c 0,-1.905 1.544,-3.45 3.45,-3.45 h 51.923 c 1.905,0 3.45,1.545 3.45,3.45 z"
   id="path87" />
			<g
   id="g88">
				<polygon
   style="fill:#5d4037"
   points="290.564,286.292 292.44,288.168 290.564,290.043 292.44,291.919 290.564,293.795 292.44,295.67 290.564,297.546 292.44,299.422 290.564,301.297 292.44,303.173 290.564,305.049 292.44,306.924 290.564,308.8 292.44,310.676 290.564,312.552 292.44,314.427 290.564,316.303 292.44,318.178 290.564,320.054 292.44,321.93 290.564,323.806 292.44,325.681 290.564,327.557 292.44,329.433 290.564,331.308 292.44,333.184 290.564,335.06 292.44,336.935 290.564,338.811 292.44,340.687 290.564,342.562 292.44,344.438 290.564,346.314 292.44,348.189 290.564,350.065 292.44,351.941 290.564,353.817 292.44,355.692 290.564,357.568 292.44,359.444 290.564,361.319 292.44,363.195 290.564,365.071 292.44,366.946 290.564,368.822 292.44,370.698 290.564,372.573 292.54,374.549 294.516,372.573 292.64,370.698 294.516,368.822 292.64,366.946 294.516,365.071 292.64,363.195 294.516,361.319 292.64,359.444 294.516,357.568 292.64,355.692 294.516,353.817 292.64,351.941 294.516,350.065 292.64,348.189 294.516,346.314 292.64,344.438 294.516,342.562 292.64,340.687 294.516,338.811 292.64,336.935 294.516,335.06 292.64,333.184 294.516,331.308 292.64,329.433 294.516,327.557 292.64,325.681 294.516,323.806 292.64,321.93 294.516,320.054 292.64,318.178 294.516,316.303 292.64,314.427 294.516,312.552 292.64,310.676 294.516,308.8 292.64,306.924 294.516,305.049 292.64,303.173 294.516,301.297 292.64,299.422 294.516,297.546 292.64,295.67 294.516,293.795 292.64,291.919 294.516,290.043 292.64,288.168 294.516,286.292 292.64,284.416 294.516,282.541 292.64,280.665 294.516,278.789 292.64,276.913 294.516,275.038 292.64,273.162 294.516,271.286 292.64,269.411 294.516,267.535 292.64,265.659 294.516,263.784 292.64,261.908 294.516,260.032 292.64,258.157 294.516,256.281 292.54,254.305 290.564,256.281 292.44,258.157 290.564,260.032 292.44,261.908 290.564,263.784 292.44,265.659 290.564,267.535 292.44,269.411 290.564,271.286 292.44,273.162 290.564,275.038 292.44,276.913 290.564,278.789 292.44,280.665 290.564,282.541 292.44,284.416 "
   id="polygon87" />
				<polygon
   style="fill:#5d4037"
   points="331.646,286.292 333.521,288.168 331.646,290.043 333.521,291.919 331.646,293.795 333.521,295.67 331.646,297.546 333.521,299.422 331.646,301.297 333.521,303.173 331.646,305.049 333.521,306.924 331.646,308.8 333.521,310.676 331.646,312.552 333.521,314.427 331.646,316.303 333.521,318.178 331.646,320.054 333.521,321.93 331.646,323.806 333.521,325.681 331.646,327.557 333.521,329.433 331.646,331.308 333.521,333.184 331.646,335.06 333.521,336.935 331.646,338.811 333.521,340.687 331.646,342.562 333.521,344.438 331.646,346.314 333.521,348.189 331.646,350.065 333.521,351.941 331.646,353.817 333.521,355.692 331.646,357.568 333.521,359.444 331.646,361.319 333.521,363.195 331.646,365.071 333.521,366.946 331.646,368.822 333.521,370.698 331.646,372.573 333.621,374.549 335.597,372.573 333.721,370.698 335.597,368.822 333.721,366.946 335.597,365.071 333.721,363.195 335.597,361.319 333.721,359.444 335.597,357.568 333.721,355.692 335.597,353.817 333.721,351.941 335.597,350.065 333.721,348.189 335.597,346.314 333.721,344.438 335.597,342.562 333.721,340.687 335.597,338.811 333.721,336.935 335.597,335.06 333.721,333.184 335.597,331.308 333.721,329.433 335.597,327.557 333.721,325.681 335.597,323.806 333.721,321.93 335.597,320.054 333.721,318.178 335.597,316.303 333.721,314.427 335.597,312.552 333.721,310.676 335.597,308.8 333.721,306.924 335.597,305.049 333.721,303.173 335.597,301.297 333.721,299.422 335.597,297.546 333.721,295.67 335.597,293.795 333.721,291.919 335.597,290.043 333.721,288.168 335.597,286.292 333.721,284.416 335.597,282.541 333.721,280.665 335.597,278.789 333.721,276.913 335.597,275.038 333.721,273.162 335.597,271.286 333.721,269.411 335.597,267.535 333.721,265.659 335.597,263.784 333.721,261.908 335.597,260.032 333.721,258.157 335.597,256.281 333.621,254.305 331.646,256.281 333.521,258.157 331.646,260.032 333.521,261.908 331.646,263.784 333.521,265.659 331.646,267.535 333.521,269.411 331.646,271.286 333.521,273.162 331.646,275.038 333.521,276.913 331.646,278.789 333.521,280.665 331.646,282.541 333.521,284.416 "
   id="polygon88" />
			</g>
			<polygon
   style="opacity:0.36;fill:#3e2723"
   points="295.006,285.151 296.97,285.151 333.188,285.151 335.153,285.151 341.626,285.151 315.079,258.604 288.532,285.151 "
   id="polygon89" />
			<g
   id="g92">
				<polygon
   style="fill:#ffffff"
   points="341.626,283.061 288.532,283.061 315.079,256.514 "
   id="polygon90" />
				<g
   id="g91">
					<polygon
   style="fill:#afbdc4"
   points="296.97,283.061 295.006,283.061 315.079,262.987 335.153,283.061 333.188,283.061 315.079,264.952 "
   id="polygon91" />
				</g>
			</g>
			<path
   style="opacity:0.36;fill:#3e2723"
   d="m 334.23,354.012 v 0 c -0.004,-3.55 -3.352,-2.358 -7.985,-1.945 -4.635,0.413 -16.138,1.076 -16.668,1.122 -0.472,0.04 -1.136,0.085 -1.81,-1.102 -0.615,-1.896 -2.271,-3.237 -5.424,-3.237 -4.144,0 -7.503,2.311 -7.503,5.163 0,2.851 3.359,5.163 7.503,5.163 3.148,0 4.804,-1.337 5.421,-3.228 0.675,-1.191 1.34,-1.147 1.812,-1.106 0.53,0.045 12.033,0.709 16.668,1.122 4.633,0.413 7.981,1.605 7.985,-1.945 v 0 c 0,-0.001 0,-0.002 0,-0.003 0.001,-0.002 0.001,-0.003 0.001,-0.004 z m -0.209,10.479 c -0.069,-3.422 -3.392,-2.257 -7.978,-1.848 -4.635,0.413 -16.138,1.076 -16.668,1.122 -0.472,0.04 -1.136,0.085 -1.81,-1.102 -0.801,-1.461 -2.021,-1.676 -3.503,-1.676 h -8.037 c -0.981,0 -1.004,0.622 0.072,0.622 1.076,0 7.319,0.55 7.989,0.646 0.67,0.096 0.933,0.359 -0.048,0.478 -0.981,0.12 -7.614,0.311 -8.404,0.383 -0.789,0.072 -0.765,0.478 -0.024,0.55 0.741,0.072 7.973,0.359 8.38,0.406 0.397,0.047 0.642,0.233 0.642,0.425 0,0.193 -0.245,0.378 -0.642,0.425 -0.407,0.048 -7.638,0.335 -8.38,0.407 -0.741,0.072 -0.765,0.478 0.024,0.55 0.789,0.072 7.423,0.263 8.404,0.383 0.981,0.119 0.717,0.383 0.048,0.478 -0.67,0.096 -6.912,0.646 -7.989,0.646 -1.076,0 -1.052,0.622 -0.072,0.622 h 8.037 c 1.483,0 2.703,-0.215 3.503,-1.676 0.674,-1.187 1.338,-1.142 1.81,-1.102 0.53,0.046 12.033,0.709 16.668,1.122 4.587,0.409 7.909,1.574 7.978,-1.848 h 10e-4 c 0,-0.002 0,-0.004 0,-0.006 0,-0.004 0,-0.005 -10e-4,-0.007 z"
   id="path92" />
			<g
   id="g95">
				<path
   style="fill:#ced7db"
   d="m 307.767,349.996 c -0.615,-1.896 -2.271,-3.237 -5.424,-3.237 -4.144,0 -7.503,2.311 -7.503,5.163 0,2.851 3.359,5.163 7.503,5.163 3.148,0 4.804,-1.337 5.421,-3.228 0.675,-1.19 1.34,-1.147 1.812,-1.106 0.53,0.045 12.033,0.709 16.668,1.122 4.633,0.413 7.981,1.604 7.985,-1.946 v 0 c 0,-0.001 0,-0.002 0,-0.002 0,0 0,-0.002 0,-0.002 v 0 c -0.003,-3.55 -3.352,-2.358 -7.985,-1.945 -4.635,0.413 -16.138,1.076 -16.668,1.122 -0.471,0.039 -1.135,0.083 -1.809,-1.104 z"
   id="path93" />
				<g
   id="g94">
					<path
   style="fill:#ced7db"
   d="m 296.097,359.517 c 1.076,0 7.319,0.55 7.989,0.646 0.67,0.096 0.933,0.359 -0.048,0.478 -0.981,0.12 -7.614,0.311 -8.404,0.383 -0.789,0.072 -0.765,0.478 -0.024,0.55 0.741,0.072 7.973,0.359 8.38,0.407 0.397,0.047 0.642,0.232 0.642,0.425 0,0.192 -0.245,0.378 -0.642,0.425 -0.407,0.048 -7.638,0.335 -8.38,0.407 -0.741,0.072 -0.765,0.478 0.024,0.55 0.789,0.072 7.423,0.263 8.404,0.383 0.981,0.12 0.718,0.383 0.048,0.478 -0.67,0.095 -6.912,0.646 -7.989,0.646 -1.076,0 -1.052,0.622 -0.072,0.622 h 8.037 c 1.483,0 2.703,-0.215 3.503,-1.676 0.674,-1.187 1.338,-1.142 1.81,-1.102 0.53,0.045 12.033,0.709 16.668,1.122 4.586,0.409 7.909,1.573 7.978,-1.848 h 10e-4 c 0,-0.002 0,-0.003 0,-0.005 0,-0.002 0,-0.004 0,-0.005 h -10e-4 c -0.069,-3.422 -3.392,-2.257 -7.978,-1.848 -4.635,0.413 -16.138,1.076 -16.668,1.122 -0.472,0.04 -1.136,0.085 -1.81,-1.102 -0.801,-1.461 -2.021,-1.677 -3.503,-1.677 h -8.037 c -0.981,-0.003 -1.005,0.619 0.072,0.619 z"
   id="path94" />
				</g>
			</g>
			<path
   style="opacity:0.36;fill:#3e2723"
   d="m 316.127,287.342 c -0.351,-0.012 -0.694,-0.053 -1.048,-0.053 -16.788,0 -30.397,13.609 -30.397,30.397 0,16.788 13.609,30.398 30.397,30.398 0.354,0 0.697,-0.041 1.048,-0.053 16.299,-0.557 29.349,-13.91 29.349,-30.345 10e-4,-16.434 -13.05,-29.787 -29.349,-30.344 z"
   id="path95" />
			<g
   id="g99">
				<path
   style="fill:#ffffff"
   d="m 284.682,315.596 c 0,16.788 13.609,30.397 30.397,30.397 0.354,0 0.697,-0.041 1.048,-0.053 16.299,-0.557 29.349,-13.91 29.349,-30.345 0,-16.434 -13.051,-29.788 -29.349,-30.345 -0.351,-0.012 -0.694,-0.053 -1.048,-0.053 -16.788,0.002 -30.397,13.611 -30.397,30.399 z"
   id="path96" />
				<g
   id="g98">
					<path
   style="fill:#baddf9"
   d="m 295.414,315.596 c 0,-11.419 9.068,-20.698 20.394,-21.085 -0.244,-0.008 -0.482,-0.037 -0.728,-0.037 -11.665,0 -21.122,9.457 -21.122,21.122 0,11.665 9.457,21.122 21.122,21.122 0.246,0 0.484,-0.028 0.728,-0.037 -11.326,-0.387 -20.394,-9.666 -20.394,-21.085 z"
   id="path97" />
					<path
   style="fill:#e3f1fc"
   d="m 336.201,315.596 c 0,-11.419 -9.069,-20.698 -20.394,-21.085 -11.325,0.387 -20.394,9.666 -20.394,21.085 0,11.419 9.068,20.698 20.394,21.085 11.326,-0.387 20.394,-9.666 20.394,-21.085 z"
   id="path98" />
				</g>
			</g>
		</g>
		<g
   id="g114">
			<path
   style="fill:#5d4037"
   d="m 159.69,84.796 v 117.242 c 0,1.905 1.544,3.45 3.45,3.45 h 51.923 c 1.905,0 3.45,-1.545 3.45,-3.45 V 84.796 c 0,-1.905 -1.544,-3.45 -3.45,-3.45 H 163.14 c -1.905,0 -3.45,1.544 -3.45,3.45 z"
   id="path100" />
			<path
   style="fill:#3e2723"
   d="m 159.69,83.525 v 117.242 c 0,1.905 1.544,3.45 3.45,3.45 h 51.923 c 1.905,0 3.45,-1.544 3.45,-3.45 V 83.525 c 0,-1.905 -1.544,-3.45 -3.45,-3.45 H 163.14 c -1.905,10e-4 -3.45,1.545 -3.45,3.45 z"
   id="path101" />
			<g
   id="g102">
				<polygon
   style="fill:#5d4037"
   points="212.228,113.76 210.352,115.636 212.228,117.512 210.352,119.388 212.228,121.263 210.352,123.139 212.228,125.015 210.352,126.89 212.228,128.766 210.352,130.642 212.228,132.517 210.352,134.393 212.228,136.269 210.352,138.144 212.228,140.02 210.352,141.896 212.228,143.771 210.352,145.647 212.228,147.523 210.352,149.398 212.228,151.274 210.352,153.15 212.228,155.026 210.352,156.901 212.228,158.777 210.352,160.653 212.228,162.528 210.352,164.404 212.228,166.28 210.352,168.155 212.228,170.031 210.352,171.907 212.228,173.782 210.352,175.658 212.228,177.534 210.352,179.409 212.228,181.285 210.352,183.161 212.228,185.036 210.352,186.912 212.228,188.788 210.352,190.663 212.228,192.539 210.352,194.415 212.228,196.291 210.352,198.166 212.228,200.042 210.252,202.017 208.277,200.042 210.152,198.166 208.277,196.291 210.152,194.415 208.277,192.539 210.152,190.663 208.277,188.788 210.152,186.912 208.277,185.036 210.152,183.161 208.277,181.285 210.152,179.409 208.277,177.534 210.152,175.658 208.277,173.782 210.152,171.907 208.277,170.031 210.152,168.155 208.277,166.28 210.152,164.404 208.277,162.528 210.152,160.653 208.277,158.777 210.152,156.901 208.277,155.026 210.152,153.15 208.277,151.274 210.152,149.398 208.277,147.523 210.152,145.647 208.277,143.771 210.152,141.896 208.277,140.02 210.152,138.144 208.277,136.269 210.152,134.393 208.277,132.517 210.152,130.642 208.277,128.766 210.152,126.89 208.277,125.015 210.152,123.139 208.277,121.263 210.152,119.388 208.277,117.512 210.152,115.636 208.277,113.76 210.152,111.885 208.277,110.009 210.152,108.133 208.277,106.258 210.152,104.382 208.277,102.506 210.152,100.631 208.277,98.755 210.152,96.879 208.277,95.004 210.152,93.128 208.277,91.252 210.152,89.377 208.277,87.501 210.152,85.625 208.277,83.75 210.252,81.774 212.228,83.75 210.352,85.625 212.228,87.501 210.352,89.377 212.228,91.252 210.352,93.128 212.228,95.004 210.352,96.879 212.228,98.755 210.352,100.631 212.228,102.506 210.352,104.382 212.228,106.258 210.352,108.133 212.228,110.009 210.352,111.885 "
   id="polygon101" />
				<polygon
   style="fill:#5d4037"
   points="171.146,113.76 169.271,115.636 171.146,117.512 169.271,119.388 171.146,121.263 169.271,123.139 171.146,125.015 169.271,126.89 171.146,128.766 169.271,130.642 171.146,132.517 169.271,134.393 171.146,136.269 169.271,138.144 171.146,140.02 169.271,141.896 171.146,143.771 169.271,145.647 171.146,147.523 169.271,149.398 171.146,151.274 169.271,153.15 171.146,155.026 169.271,156.901 171.146,158.777 169.271,160.653 171.146,162.528 169.271,164.404 171.146,166.28 169.271,168.155 171.146,170.031 169.271,171.907 171.146,173.782 169.271,175.658 171.146,177.534 169.271,179.409 171.146,181.285 169.271,183.161 171.146,185.036 169.271,186.912 171.146,188.788 169.271,190.663 171.146,192.539 169.271,194.415 171.146,196.291 169.271,198.166 171.146,200.042 169.171,202.017 167.195,200.042 169.071,198.166 167.195,196.291 169.071,194.415 167.195,192.539 169.071,190.663 167.195,188.788 169.071,186.912 167.195,185.036 169.071,183.161 167.195,181.285 169.071,179.409 167.195,177.534 169.071,175.658 167.195,173.782 169.071,171.907 167.195,170.031 169.071,168.155 167.195,166.28 169.071,164.404 167.195,162.528 169.071,160.653 167.195,158.777 169.071,156.901 167.195,155.026 169.071,153.15 167.195,151.274 169.071,149.398 167.195,147.523 169.071,145.647 167.195,143.771 169.071,141.896 167.195,140.02 169.071,138.144 167.195,136.269 169.071,134.393 167.195,132.517 169.071,130.642 167.195,128.766 169.071,126.89 167.195,125.015 169.071,123.139 167.195,121.263 169.071,119.388 167.195,117.512 169.071,115.636 167.195,113.76 169.071,111.885 167.195,110.009 169.071,108.133 167.195,106.258 169.071,104.382 167.195,102.506 169.071,100.631 167.195,98.755 169.071,96.879 167.195,95.004 169.071,93.128 167.195,91.252 169.071,89.377 167.195,87.501 169.071,85.625 167.195,83.75 169.171,81.774 171.146,83.75 169.271,85.625 171.146,87.501 169.271,89.377 171.146,91.252 169.271,93.128 171.146,95.004 169.271,96.879 171.146,98.755 169.271,100.631 171.146,102.506 169.271,104.382 171.146,106.258 169.271,108.133 171.146,110.009 169.271,111.885 "
   id="polygon102" />
			</g>
			<polygon
   style="opacity:0.36;fill:#3e2723"
   points="207.786,112.62 205.822,112.62 169.604,112.62 167.639,112.62 161.166,112.62 187.713,86.073 214.26,112.62 "
   id="polygon103" />
			<g
   id="g106">
				<polygon
   style="fill:#ffffff"
   points="161.166,110.53 214.26,110.53 187.713,83.983 "
   id="polygon104" />
				<g
   id="g105">
					<polygon
   style="fill:#afbdc4"
   points="205.822,110.53 207.786,110.53 187.713,90.456 167.639,110.53 169.604,110.53 187.713,92.421 "
   id="polygon105" />
				</g>
			</g>
			<path
   style="opacity:0.36;fill:#3e2723"
   d="m 168.563,181.483 c 0,0.001 0,0.002 0,0.002 v 0 c 0.003,3.55 3.352,2.358 7.985,1.946 4.635,-0.413 16.138,-1.076 16.668,-1.122 0.472,-0.041 1.137,-0.084 1.812,1.106 0.617,1.891 2.274,3.228 5.422,3.228 4.144,0 7.503,-2.311 7.503,-5.163 0,-2.851 -3.359,-5.163 -7.503,-5.163 -3.153,0 -4.809,1.341 -5.424,3.237 -0.674,1.187 -1.338,1.142 -1.81,1.102 -0.53,-0.046 -12.033,-0.709 -16.668,-1.122 -4.633,-0.413 -7.981,-1.605 -7.985,1.945 v 0 c -10e-4,0.002 0,0.003 0,0.004 z m 0.207,10.476 c 0,0.002 0,0.004 0,0.006 0,0.002 0,0.004 0,0.006 h 10e-4 c 0.069,3.422 3.392,2.257 7.978,1.848 4.635,-0.413 16.138,-1.076 16.668,-1.122 0.472,-0.04 1.136,-0.085 1.81,1.102 0.801,1.461 2.021,1.676 3.504,1.676 h 8.037 c 0.981,0 1.005,-0.622 -0.072,-0.622 -1.076,0 -7.319,-0.55 -7.989,-0.646 -0.67,-0.096 -0.933,-0.359 0.048,-0.478 0.981,-0.12 7.614,-0.311 8.404,-0.383 0.789,-0.072 0.765,-0.478 0.024,-0.55 -0.742,-0.072 -7.973,-0.359 -8.38,-0.407 -0.397,-0.047 -0.642,-0.233 -0.642,-0.425 0,-0.192 0.244,-0.378 0.642,-0.425 0.407,-0.048 7.638,-0.335 8.38,-0.407 0.741,-0.072 0.765,-0.478 -0.024,-0.55 -0.789,-0.072 -7.423,-0.263 -8.404,-0.383 -0.981,-0.12 -0.717,-0.383 -0.048,-0.478 0.67,-0.096 6.912,-0.646 7.989,-0.646 1.076,0 1.053,-0.622 0.072,-0.622 h -8.037 c -1.483,0 -2.703,0.215 -3.504,1.676 -0.674,1.187 -1.338,1.142 -1.81,1.102 -0.53,-0.045 -12.033,-0.709 -16.668,-1.122 -4.586,-0.407 -7.909,-1.571 -7.979,1.85 z"
   id="path106" />
			<g
   id="g109">
				<path
   style="fill:#ced7db"
   d="m 195.025,177.465 c 0.615,-1.896 2.271,-3.237 5.424,-3.237 4.144,0 7.503,2.311 7.503,5.163 0,2.851 -3.359,5.163 -7.503,5.163 -3.148,0 -4.804,-1.337 -5.422,-3.228 -0.675,-1.191 -1.34,-1.147 -1.812,-1.106 -0.53,0.045 -12.033,0.709 -16.668,1.122 -4.633,0.413 -7.981,1.605 -7.985,-1.945 v 0 c 0,-0.001 0,-0.002 0,-0.002 0,-0.001 0,-0.002 0,-0.002 v 0 c 0.003,-3.55 3.352,-2.358 7.985,-1.945 4.635,0.413 16.138,1.076 16.668,1.122 0.472,0.037 1.136,0.081 1.81,-1.105 z"
   id="path107" />
				<g
   id="g108">
					<path
   style="fill:#ced7db"
   d="m 206.695,186.986 c -1.076,0 -7.319,0.55 -7.989,0.646 -0.67,0.096 -0.933,0.359 0.048,0.478 0.981,0.119 7.614,0.311 8.404,0.383 0.789,0.072 0.765,0.478 0.024,0.55 -0.742,0.072 -7.973,0.359 -8.38,0.406 -0.397,0.047 -0.642,0.233 -0.642,0.425 0,0.193 0.244,0.378 0.642,0.425 0.407,0.048 7.638,0.335 8.38,0.406 0.741,0.072 0.765,0.478 -0.024,0.55 -0.789,0.072 -7.423,0.263 -8.404,0.383 -0.981,0.12 -0.718,0.383 -0.048,0.478 0.67,0.096 6.912,0.646 7.989,0.646 1.076,0 1.053,0.622 0.072,0.622 h -8.037 c -1.483,0 -2.703,-0.215 -3.503,-1.676 -0.674,-1.187 -1.338,-1.142 -1.81,-1.102 -0.53,0.045 -12.033,0.709 -16.668,1.122 -4.587,0.409 -7.909,1.573 -7.978,-1.848 h -10e-4 c 0,-0.002 0,-0.003 0,-0.006 0,-0.002 0,-0.003 0,-0.006 h 10e-4 c 0.069,-3.422 3.392,-2.257 7.978,-1.848 4.635,0.413 16.138,1.076 16.668,1.122 0.472,0.04 1.136,0.085 1.81,-1.102 0.801,-1.461 2.021,-1.677 3.503,-1.677 h 8.037 c 0.981,0.001 1.005,0.623 -0.072,0.623 z"
   id="path108" />
				</g>
			</g>
			<path
   style="opacity:0.36;fill:#3e2723"
   d="m 186.665,114.81 c 0.351,-0.012 0.694,-0.053 1.048,-0.053 16.788,0 30.397,13.609 30.397,30.397 0,16.788 -13.609,30.397 -30.397,30.397 -0.354,0 -0.697,-0.041 -1.048,-0.053 -16.298,-0.557 -29.349,-13.91 -29.349,-30.345 -0.001,-16.433 13.05,-29.786 29.349,-30.343 z"
   id="path109" />
			<g
   id="g113">
				<path
   style="fill:#ffffff"
   d="m 218.11,143.065 c 0,16.788 -13.609,30.397 -30.397,30.397 -0.354,0 -0.697,-0.041 -1.048,-0.053 -16.298,-0.557 -29.349,-13.91 -29.349,-30.344 0,-16.434 13.051,-29.788 29.349,-30.345 0.351,-0.012 0.694,-0.053 1.048,-0.053 16.788,0 30.397,13.609 30.397,30.398 z"
   id="path110" />
				<g
   id="g112">
					<path
   style="fill:#baddf9"
   d="m 207.378,143.065 c 0,-11.42 -9.069,-20.698 -20.394,-21.085 0.244,-0.008 0.482,-0.037 0.728,-0.037 11.665,0 21.122,9.457 21.122,21.122 0,11.665 -9.457,21.122 -21.122,21.122 -0.246,0 -0.484,-0.029 -0.728,-0.037 11.325,-0.387 20.394,-9.666 20.394,-21.085 z"
   id="path111" />
					<path
   style="fill:#e3f1fc"
   d="m 166.591,143.065 c 0,-11.42 9.068,-20.698 20.394,-21.085 11.325,0.387 20.394,9.666 20.394,21.085 0,11.419 -9.069,20.698 -20.394,21.085 -11.326,-0.387 -20.394,-9.666 -20.394,-21.085 z"
   id="path112" />
				</g>
			</g>
		</g>
		<g
   id="g128">
			<path
   style="fill:#5d4037"
   d="m 159.69,257.327 v 117.242 c 0,1.905 1.544,3.45 3.45,3.45 h 51.923 c 1.905,0 3.45,-1.544 3.45,-3.45 V 257.327 c 0,-1.905 -1.544,-3.45 -3.45,-3.45 H 163.14 c -1.905,0 -3.45,1.545 -3.45,3.45 z"
   id="path114" />
			<path
   style="fill:#3e2723"
   d="m 159.69,256.057 v 117.242 c 0,1.905 1.544,3.45 3.45,3.45 h 51.923 c 1.905,0 3.45,-1.545 3.45,-3.45 V 256.057 c 0,-1.905 -1.544,-3.45 -3.45,-3.45 H 163.14 c -1.905,0 -3.45,1.545 -3.45,3.45 z"
   id="path115" />
			<g
   id="g116">
				<polygon
   style="fill:#5d4037"
   points="212.228,286.292 210.352,288.168 212.228,290.043 210.352,291.919 212.228,293.795 210.352,295.67 212.228,297.546 210.352,299.422 212.228,301.297 210.352,303.173 212.228,305.049 210.352,306.924 212.228,308.8 210.352,310.676 212.228,312.552 210.352,314.427 212.228,316.303 210.352,318.178 212.228,320.054 210.352,321.93 212.228,323.806 210.352,325.681 212.228,327.557 210.352,329.433 212.228,331.308 210.352,333.184 212.228,335.06 210.352,336.935 212.228,338.811 210.352,340.687 212.228,342.562 210.352,344.438 212.228,346.314 210.352,348.189 212.228,350.065 210.352,351.941 212.228,353.817 210.352,355.692 212.228,357.568 210.352,359.444 212.228,361.319 210.352,363.195 212.228,365.071 210.352,366.946 212.228,368.822 210.352,370.698 212.228,372.573 210.252,374.549 208.277,372.573 210.152,370.698 208.277,368.822 210.152,366.946 208.277,365.071 210.152,363.195 208.277,361.319 210.152,359.444 208.277,357.568 210.152,355.692 208.277,353.817 210.152,351.941 208.277,350.065 210.152,348.189 208.277,346.314 210.152,344.438 208.277,342.562 210.152,340.687 208.277,338.811 210.152,336.935 208.277,335.06 210.152,333.184 208.277,331.308 210.152,329.433 208.277,327.557 210.152,325.681 208.277,323.806 210.152,321.93 208.277,320.054 210.152,318.178 208.277,316.303 210.152,314.427 208.277,312.552 210.152,310.676 208.277,308.8 210.152,306.924 208.277,305.049 210.152,303.173 208.277,301.297 210.152,299.422 208.277,297.546 210.152,295.67 208.277,293.795 210.152,291.919 208.277,290.043 210.152,288.168 208.277,286.292 210.152,284.416 208.277,282.541 210.152,280.665 208.277,278.789 210.152,276.913 208.277,275.038 210.152,273.162 208.277,271.286 210.152,269.411 208.277,267.535 210.152,265.659 208.277,263.784 210.152,261.908 208.277,260.032 210.152,258.157 208.277,256.281 210.252,254.305 212.228,256.281 210.352,258.157 212.228,260.032 210.352,261.908 212.228,263.784 210.352,265.659 212.228,267.535 210.352,269.411 212.228,271.286 210.352,273.162 212.228,275.038 210.352,276.913 212.228,278.789 210.352,280.665 212.228,282.541 210.352,284.416 "
   id="polygon115" />
				<polygon
   style="fill:#5d4037"
   points="171.146,286.292 169.271,288.168 171.146,290.043 169.271,291.919 171.146,293.795 169.271,295.67 171.146,297.546 169.271,299.422 171.146,301.297 169.271,303.173 171.146,305.049 169.271,306.924 171.146,308.8 169.271,310.676 171.146,312.552 169.271,314.427 171.146,316.303 169.271,318.178 171.146,320.054 169.271,321.93 171.146,323.806 169.271,325.681 171.146,327.557 169.271,329.433 171.146,331.308 169.271,333.184 171.146,335.06 169.271,336.935 171.146,338.811 169.271,340.687 171.146,342.562 169.271,344.438 171.146,346.314 169.271,348.189 171.146,350.065 169.271,351.941 171.146,353.817 169.271,355.692 171.146,357.568 169.271,359.444 171.146,361.319 169.271,363.195 171.146,365.071 169.271,366.946 171.146,368.822 169.271,370.698 171.146,372.573 169.171,374.549 167.195,372.573 169.071,370.698 167.195,368.822 169.071,366.946 167.195,365.071 169.071,363.195 167.195,361.319 169.071,359.444 167.195,357.568 169.071,355.692 167.195,353.817 169.071,351.941 167.195,350.065 169.071,348.189 167.195,346.314 169.071,344.438 167.195,342.562 169.071,340.687 167.195,338.811 169.071,336.935 167.195,335.06 169.071,333.184 167.195,331.308 169.071,329.433 167.195,327.557 169.071,325.681 167.195,323.806 169.071,321.93 167.195,320.054 169.071,318.178 167.195,316.303 169.071,314.427 167.195,312.552 169.071,310.676 167.195,308.8 169.071,306.924 167.195,305.049 169.071,303.173 167.195,301.297 169.071,299.422 167.195,297.546 169.071,295.67 167.195,293.795 169.071,291.919 167.195,290.043 169.071,288.168 167.195,286.292 169.071,284.416 167.195,282.541 169.071,280.665 167.195,278.789 169.071,276.913 167.195,275.038 169.071,273.162 167.195,271.286 169.071,269.411 167.195,267.535 169.071,265.659 167.195,263.784 169.071,261.908 167.195,260.032 169.071,258.157 167.195,256.281 169.171,254.305 171.146,256.281 169.271,258.157 171.146,260.032 169.271,261.908 171.146,263.784 169.271,265.659 171.146,267.535 169.271,269.411 171.146,271.286 169.271,273.162 171.146,275.038 169.271,276.913 171.146,278.789 169.271,280.665 171.146,282.541 169.271,284.416 "
   id="polygon116" />
			</g>
			<polygon
   style="opacity:0.36;fill:#3e2723"
   points="207.786,285.151 205.822,285.151 169.604,285.151 167.639,285.151 161.166,285.151 187.713,258.604 214.26,285.151 "
   id="polygon117" />
			<g
   id="g120">
				<polygon
   style="fill:#ffffff"
   points="161.166,283.061 214.26,283.061 187.713,256.514 "
   id="polygon118" />
				<g
   id="g119">
					<polygon
   style="fill:#afbdc4"
   points="205.822,283.061 207.786,283.061 187.713,262.987 167.639,283.061 169.604,283.061 187.713,264.952 "
   id="polygon119" />
				</g>
			</g>
			<path
   style="opacity:0.36;fill:#3e2723"
   d="m 168.563,354.014 c 0,10e-4 0,0.002 0,0.003 v 0 c 0.003,3.55 3.352,2.358 7.985,1.945 4.635,-0.413 16.138,-1.076 16.668,-1.122 0.472,-0.041 1.137,-0.084 1.812,1.106 0.617,1.891 2.274,3.228 5.422,3.228 4.144,0 7.503,-2.311 7.503,-5.163 0,-2.851 -3.359,-5.163 -7.503,-5.163 -3.153,0 -4.809,1.341 -5.424,3.237 -0.674,1.187 -1.338,1.142 -1.81,1.102 -0.53,-0.046 -12.033,-0.709 -16.668,-1.122 -4.633,-0.413 -7.981,-1.605 -7.985,1.945 v 0 c -10e-4,0.003 0,0.004 0,0.004 z m 0.207,10.477 c 0,0.002 0,0.003 0,0.005 0,0.002 0,0.004 0,0.006 h 10e-4 c 0.069,3.422 3.392,2.257 7.978,1.848 4.635,-0.413 16.138,-1.076 16.668,-1.122 0.472,-0.04 1.136,-0.085 1.81,1.102 0.801,1.461 2.021,1.676 3.504,1.676 h 8.037 c 0.981,0 1.005,-0.622 -0.072,-0.622 -1.076,0 -7.319,-0.55 -7.989,-0.646 -0.67,-0.096 -0.933,-0.359 0.048,-0.478 0.981,-0.12 7.614,-0.311 8.404,-0.383 0.789,-0.072 0.765,-0.478 0.024,-0.55 -0.742,-0.072 -7.973,-0.359 -8.38,-0.407 -0.397,-0.047 -0.642,-0.232 -0.642,-0.425 0,-0.192 0.244,-0.378 0.642,-0.425 0.407,-0.048 7.638,-0.335 8.38,-0.406 0.741,-0.072 0.765,-0.478 -0.024,-0.55 -0.789,-0.072 -7.423,-0.263 -8.404,-0.383 -0.981,-0.12 -0.717,-0.383 -0.048,-0.478 0.67,-0.096 6.912,-0.646 7.989,-0.646 1.076,0 1.053,-0.622 0.072,-0.622 h -8.037 c -1.483,0 -2.703,0.215 -3.504,1.676 -0.674,1.187 -1.338,1.142 -1.81,1.102 -0.53,-0.045 -12.033,-0.709 -16.668,-1.122 -4.586,-0.407 -7.909,-1.572 -7.979,1.85 z"
   id="path120" />
			<g
   id="g123">
				<path
   style="fill:#ced7db"
   d="m 195.025,349.996 c 0.615,-1.896 2.271,-3.237 5.424,-3.237 4.144,0 7.503,2.311 7.503,5.163 0,2.851 -3.359,5.163 -7.503,5.163 -3.148,0 -4.804,-1.337 -5.422,-3.228 -0.675,-1.19 -1.34,-1.147 -1.812,-1.106 -0.53,0.045 -12.033,0.709 -16.668,1.122 -4.633,0.413 -7.981,1.604 -7.985,-1.946 v 0 c 0,-0.001 0,-0.002 0,-0.002 0,0 0,-0.002 0,-0.002 v 0 c 0.003,-3.55 3.352,-2.358 7.985,-1.945 4.635,0.413 16.138,1.076 16.668,1.122 0.472,0.039 1.136,0.083 1.81,-1.104 z"
   id="path121" />
				<g
   id="g122">
					<path
   style="fill:#ced7db"
   d="m 206.695,359.517 c -1.076,0 -7.319,0.55 -7.989,0.646 -0.67,0.096 -0.933,0.359 0.048,0.478 0.981,0.12 7.614,0.311 8.404,0.383 0.789,0.072 0.765,0.478 0.024,0.55 -0.742,0.072 -7.973,0.359 -8.38,0.407 -0.397,0.047 -0.642,0.232 -0.642,0.425 0,0.192 0.244,0.378 0.642,0.425 0.407,0.048 7.638,0.335 8.38,0.407 0.741,0.072 0.765,0.478 -0.024,0.55 -0.789,0.072 -7.423,0.263 -8.404,0.383 -0.981,0.12 -0.718,0.383 -0.048,0.478 0.67,0.096 6.912,0.646 7.989,0.646 1.076,0 1.053,0.622 0.072,0.622 h -8.037 c -1.483,0 -2.703,-0.215 -3.503,-1.676 -0.674,-1.187 -1.338,-1.142 -1.81,-1.102 -0.53,0.045 -12.033,0.709 -16.668,1.122 -4.587,0.409 -7.909,1.573 -7.978,-1.848 h -10e-4 c 0,-0.002 0,-0.003 0,-0.005 0,-0.002 0,-0.004 0,-0.005 h 10e-4 c 0.069,-3.422 3.392,-2.257 7.978,-1.848 4.635,0.413 16.138,1.076 16.668,1.122 0.472,0.04 1.136,0.085 1.81,-1.102 0.801,-1.461 2.021,-1.677 3.503,-1.677 h 8.037 c 0.981,-0.003 1.005,0.619 -0.072,0.619 z"
   id="path122" />
				</g>
			</g>
			<path
   style="opacity:0.36;fill:#3e2723"
   d="m 186.665,287.342 c 0.351,-0.012 0.694,-0.053 1.048,-0.053 16.788,0 30.397,13.609 30.397,30.397 0,16.788 -13.609,30.398 -30.397,30.398 -0.354,0 -0.697,-0.041 -1.048,-0.053 -16.298,-0.557 -29.349,-13.91 -29.349,-30.345 -0.001,-16.434 13.05,-29.787 29.349,-30.344 z"
   id="path123" />
			<g
   id="g127">
				<path
   style="fill:#ffffff"
   d="m 218.11,315.596 c 0,16.788 -13.609,30.397 -30.397,30.397 -0.354,0 -0.697,-0.041 -1.048,-0.053 -16.298,-0.557 -29.349,-13.91 -29.349,-30.345 0,-16.434 13.051,-29.788 29.349,-30.345 0.351,-0.012 0.694,-0.053 1.048,-0.053 16.788,0.002 30.397,13.611 30.397,30.399 z"
   id="path124" />
				<g
   id="g126">
					<path
   style="fill:#baddf9"
   d="m 207.378,315.596 c 0,-11.419 -9.069,-20.698 -20.394,-21.085 0.244,-0.008 0.482,-0.037 0.728,-0.037 11.665,0 21.122,9.457 21.122,21.122 0,11.665 -9.457,21.122 -21.122,21.122 -0.246,0 -0.484,-0.028 -0.728,-0.037 11.325,-0.387 20.394,-9.666 20.394,-21.085 z"
   id="path125" />
					<path
   style="fill:#e3f1fc"
   d="m 166.591,315.596 c 0,-11.419 9.068,-20.698 20.394,-21.085 11.325,0.387 20.394,9.666 20.394,21.085 0,11.419 -9.069,20.698 -20.394,21.085 -11.326,-0.387 -20.394,-9.666 -20.394,-21.085 z"
   id="path126" />
				</g>
			</g>
		</g>
	</g>
</g>

</svg>
