<?xml version="1.0" encoding="UTF-8" standalone="no"?>
<svg
   version="1.1"
   x="0px"
   y="0px"
   viewBox="0 0 431.24552 431.32681"
   xml:space="preserve"
   id="svg162"
   sodipodi:docname="table1.svg"
   width="431.24551"
   height="431.32681"
   inkscape:version="1.3.2 (091e20e, 2023-11-25, custom)"
   xmlns:inkscape="http://www.inkscape.org/namespaces/inkscape"
   xmlns:sodipodi="http://sodipodi.sourceforge.net/DTD/sodipodi-0.dtd"
   xmlns="http://www.w3.org/2000/svg"
   xmlns:svg="http://www.w3.org/2000/svg"><defs
   id="defs162" /><sodipodi:namedview
   id="namedview162"
   pagecolor="#ffffff"
   bordercolor="#000000"
   borderopacity="0.25"
   inkscape:showpageshadow="2"
   inkscape:pageopacity="0.0"
   inkscape:pagecheckerboard="0"
   inkscape:deskcolor="#d1d1d1"
   inkscape:zoom="1.282"
   inkscape:cx="232.4493"
   inkscape:cy="246.87988"
   inkscape:window-width="1600"
   inkscape:window-height="837"
   inkscape:window-x="-8"
   inkscape:window-y="-8"
   inkscape:window-maximized="1"
   inkscape:current-layer="svg162" />

<g
   id="Objects"
   transform="rotate(-45.439848,215.7183,265.75323)">
	<g
   id="g162">
		<path
   style="opacity:0.48;fill:#f0d78e"
   d="M 236.438,436.608 73.081,273.251 c -7.45,-7.45 -7.45,-19.528 0,-26.978 L 236.438,82.916 c 7.45,-7.45 19.528,-7.45 26.978,0 l 163.357,163.357 c 7.45,7.45 7.45,19.528 0,26.978 L 263.416,436.608 c -7.449,7.45 -19.528,7.45 -26.978,0 z"
   id="path1" />
		<g
   id="g161">
			<g
   id="g14">
				
					<rect
   x="367.66699"
   y="75.487"
   transform="matrix(0.7071,-0.7071,0.7071,0.7071,24.017,296.2743)"
   style="fill:#5d4037"
   width="3.9530001"
   height="87.318001"
   id="rect1" />
				
					<rect
   x="347.306"
   y="93.111"
   transform="matrix(0.7071,-0.7071,0.7071,0.7071,3.6562,287.8405)"
   style="fill:#5d4037"
   width="3.9530001"
   height="92.791"
   id="rect2" />
				<g
   id="g8">
					<g
   id="g3">
						<path
   style="fill:#8c6e63"
   d="m 362.948,57.252 3.02,-3.02 c 13.838,4.377 30.649,16.614 39.467,25.433 8.819,8.819 19.772,21.016 27.07,40.598 -0.051,-0.051 -3.364,3.169 -3.364,3.169 0,0 -12.997,-23.649 -28.267,-38.919 C 385.605,69.245 367.031,58.629 362.948,57.252 Z"
   id="path2" />
						<path
   style="fill:#795548"
   d="m 368.453,59.566 c -2.247,-1.127 -5.505,-2.314 -5.505,-2.314 l -1.357,2.896 -11.045,29.452 3.14,1.191 12.344,-28.803 c 1.562,0.73 3.156,1.519 4.769,2.358 l -13.326,28.041 3.028,1.453 14.503,-27.208 c 1.817,1.031 3.65,2.131 5.493,3.301 l -17.19,26.007 2.795,1.862 18.395,-25.222 c 1.591,1.096 3.181,2.247 4.765,3.451 l -19.153,24.231 2.627,2.093 20.278,-23.354 c 1.961,1.615 3.902,3.317 5.812,5.108 l -21.661,22.005 2.953,2.953 22.335,-21.406 c 1.707,1.747 3.382,3.564 5.01,5.466 l -23.418,20.334 2.092,2.627 24.355,-19.251 c 1.241,1.584 2.451,3.216 3.623,4.902 l -25.467,18.609 1.862,2.795 26.249,-17.402 c 1.139,1.808 2.236,3.668 3.284,5.585 l -27.432,14.623 1.453,3.028 28.181,-13.392 c 0.771,1.579 1.515,3.186 2.217,4.835 l -28.803,12.344 1.191,3.14 29.452,-11.045 2.837,-1.429 c 0,0 -1.391,-3.544 -2.255,-5.434 C 413.865,87.424 388.667,69.01 368.453,59.566 Z"
   id="path3" />
					</g>
					<g
   id="g7">
						<path
   style="fill:#1a1a1a"
   d="m 354.301,86.594 c -1.976,-1.197 -4.482,-1.168 -6.435,0.067 -10.933,6.914 -20.775,14.919 -29.548,23.993 7.811,-7.552 16.411,-14.314 25.822,-20.266 1.953,-1.235 4.459,-1.264 6.435,-0.066 19.683,11.927 35.488,27.732 47.415,47.415 1.197,1.976 1.169,4.482 -0.066,6.435 -5.952,9.411 -12.714,18.011 -20.266,25.822 9.074,-8.773 17.078,-18.616 23.993,-29.548 1.235,-1.953 1.264,-4.459 0.066,-6.435 -11.928,-19.685 -27.733,-35.49 -47.416,-47.417 z"
   id="path4" />
						<g
   id="g6">
							<path
   style="fill:#333333"
   d="m 397.923,144.171 c 1.235,-1.953 1.264,-4.459 0.066,-6.435 -11.927,-19.683 -27.732,-35.488 -47.415,-47.415 -1.976,-1.197 -4.483,-1.169 -6.435,0.066 -6.089,3.851 -11.833,8.047 -17.249,12.571 l 58.463,58.463 c 4.523,-5.417 8.719,-11.161 12.57,-17.25 z"
   id="path5" />
							<path
   style="fill:#292929"
   d="m 326.889,102.958 c -2.954,2.468 -5.815,5.03 -8.572,7.695 -7.552,7.811 -14.314,16.411 -20.266,25.822 -1.235,1.953 -1.264,4.459 -0.066,6.435 11.927,19.683 27.732,35.488 47.415,47.415 1.976,1.197 4.483,1.169 6.435,-0.066 9.411,-5.952 18.011,-12.714 25.822,-20.266 2.665,-2.757 5.227,-5.618 7.695,-8.572 z"
   id="path6" />
						</g>
					</g>
				</g>
				<g
   id="g10">
					<path
   style="fill:#9e6f5e"
   d="m 302.557,115.394 c 6.349,-9.523 20.601,-22.647 27.762,-27.961 -0.423,0.278 -0.85,0.571 -1.281,0.877 -6.825,4.847 -21.999,18.664 -28.607,28.576 -2.203,3.194 -1.066,7.605 1.504,8.814 0.417,-0.626 0.877,-1.286 1.377,-1.976 -2.018,-1.637 -2.729,-5.469 -0.755,-8.33 z"
   id="path8" />
					<path
   style="fill:#795548"
   d="m 343.381,87.815 c -0.029,-0.099 -0.068,-0.179 -0.099,-0.274 -2.609,1.485 -5.225,3.188 -7.807,5.045 2.627,-1.788 5.277,-3.402 7.906,-4.771 z"
   id="path9" />
					<path
   style="fill:#6d4c41"
   d="m 330.319,87.433 c -7.161,5.314 -21.413,18.437 -27.762,27.961 -1.974,2.862 -1.263,6.694 0.755,8.33 6.303,-8.702 18.936,-22.13 32.163,-31.137 2.582,-1.857 5.199,-3.561 7.807,-5.045 -1.675,-5.141 -6.811,-4.162 -12.963,-0.109 z"
   id="path10" />
				</g>
				<g
   id="g13">
					<path
   style="fill:#9e6f5e"
   d="m 372.69,185.527 c 9.523,-6.349 22.647,-20.601 27.961,-27.762 -0.279,0.423 -0.571,0.85 -0.877,1.281 -4.847,6.825 -18.664,21.999 -28.576,28.607 -3.194,2.203 -7.605,1.066 -8.814,-1.504 0.626,-0.417 1.286,-0.877 1.976,-1.377 1.636,2.017 5.468,2.728 8.33,0.755 z"
   id="path11" />
					<path
   style="fill:#795548"
   d="m 400.268,144.703 c 0.099,0.029 0.179,0.068 0.274,0.099 -1.485,2.609 -3.188,5.225 -5.045,7.807 1.788,-2.627 3.403,-5.277 4.771,-7.906 z"
   id="path12" />
					<path
   style="fill:#6d4c41"
   d="m 400.651,157.764 c -5.314,7.161 -18.437,21.413 -27.961,27.762 -2.862,1.974 -6.694,1.263 -8.331,-0.755 8.702,-6.303 22.13,-18.936 31.137,-32.163 1.857,-2.582 3.561,-5.199 5.045,-7.807 5.142,1.676 4.163,6.812 0.11,12.963 z"
   id="path13" />
				</g>
			</g>
			<g
   id="g27">
				
					<rect
   x="364.535"
   y="301.40601"
   transform="matrix(0.7071,0.7071,-0.7071,0.7071,351.3375,-158.0948)"
   style="fill:#5d4037"
   width="3.9530001"
   height="87.318001"
   id="rect14" />
				
					<rect
   x="344.17401"
   y="278.30899"
   transform="matrix(0.7071,0.7071,-0.7071,0.7071,330.9771,-149.6611)"
   style="fill:#5d4037"
   width="3.9530001"
   height="92.791"
   id="rect15" />
				<g
   id="g21">
					<g
   id="g16">
						<path
   style="fill:#8c6e63"
   d="m 428.405,338.37 3.02,3.02 c -4.377,13.838 -16.614,30.649 -25.433,39.467 -8.819,8.819 -21.016,19.772 -40.598,27.07 0.051,-0.051 -3.169,-3.365 -3.169,-3.365 0,0 23.649,-12.997 38.918,-28.267 15.269,-15.268 25.885,-33.842 27.262,-37.925 z"
   id="path15" />
						<path
   style="fill:#795548"
   d="m 426.091,343.875 c 1.127,-2.247 2.314,-5.505 2.314,-5.505 l -2.896,-1.357 -29.452,-11.045 -1.191,3.14 28.803,12.344 c -0.73,1.562 -1.52,3.156 -2.358,4.769 l -28.041,-13.326 -1.453,3.028 27.208,14.503 c -1.031,1.817 -2.131,3.65 -3.301,5.493 l -26.008,-17.19 -1.862,2.795 25.222,18.395 c -1.096,1.591 -2.247,3.181 -3.451,4.765 l -24.231,-19.153 -2.093,2.627 23.354,20.278 c -1.615,1.961 -3.316,3.902 -5.108,5.812 l -22.005,-21.661 -2.953,2.953 21.406,22.335 c -1.747,1.707 -3.564,3.382 -5.466,5.01 l -20.334,-23.418 -2.627,2.092 19.251,24.355 c -1.584,1.241 -3.216,2.451 -4.902,3.623 l -18.609,-25.467 -2.795,1.862 17.402,26.25 c -1.808,1.139 -3.668,2.236 -5.585,3.283 l -14.623,-27.432 -3.028,1.453 13.392,28.181 c -1.579,0.771 -3.186,1.515 -4.835,2.217 l -12.344,-28.803 -3.14,1.191 11.045,29.452 1.429,2.837 c 0,0 3.544,-1.391 5.434,-2.255 30.573,-13.019 48.987,-38.217 58.431,-58.431 z"
   id="path16" />
					</g>
					<g
   id="g20">
						<path
   style="fill:#1a1a1a"
   d="m 399.063,329.723 c 1.198,-1.976 1.169,-4.483 -0.066,-6.435 -6.914,-10.933 -14.919,-20.775 -23.993,-29.548 7.552,7.811 14.314,16.411 20.266,25.822 1.235,1.953 1.264,4.459 0.066,6.435 -11.927,19.683 -27.732,35.488 -47.415,47.415 -1.976,1.197 -4.483,1.169 -6.435,-0.066 -9.411,-5.952 -18.011,-12.714 -25.822,-20.266 8.773,9.074 18.616,17.078 29.548,23.993 1.953,1.235 4.459,1.264 6.435,0.066 19.684,-11.928 35.489,-27.733 47.416,-47.416 z"
   id="path17" />
						<g
   id="g19">
							<path
   style="fill:#333333"
   d="m 341.486,373.345 c 1.953,1.235 4.459,1.264 6.435,0.066 19.683,-11.927 35.488,-27.732 47.415,-47.415 1.197,-1.976 1.169,-4.483 -0.066,-6.435 -3.851,-6.089 -8.047,-11.833 -12.571,-17.249 l -58.463,58.463 c 5.416,4.523 11.161,8.719 17.25,12.57 z"
   id="path18" />
							<path
   style="fill:#292929"
   d="m 382.699,302.311 c -2.468,-2.955 -5.03,-5.815 -7.695,-8.572 -7.811,-7.552 -16.411,-14.314 -25.822,-20.266 -1.953,-1.235 -4.459,-1.264 -6.435,-0.066 -19.683,11.927 -35.488,27.732 -47.415,47.415 -1.197,1.976 -1.169,4.483 0.066,6.435 5.952,9.411 12.714,18.011 20.266,25.822 2.757,2.665 5.618,5.227 8.572,7.695 z"
   id="path19" />
						</g>
					</g>
				</g>
				<g
   id="g23">
					<path
   style="fill:#9e6f5e"
   d="m 370.263,277.979 c 9.523,6.349 22.647,20.601 27.961,27.762 -0.279,-0.423 -0.571,-0.85 -0.877,-1.281 -4.847,-6.825 -18.664,-21.999 -28.576,-28.607 -3.194,-2.203 -7.605,-1.066 -8.814,1.504 0.626,0.417 1.286,0.877 1.976,1.377 1.637,-2.018 5.468,-2.729 8.33,-0.755 z"
   id="path21" />
					<path
   style="fill:#795548"
   d="m 397.841,318.803 c 0.099,-0.029 0.179,-0.068 0.274,-0.099 -1.485,-2.609 -3.188,-5.225 -5.045,-7.807 1.789,2.627 3.403,5.277 4.771,7.906 z"
   id="path22" />
					<path
   style="fill:#6d4c41"
   d="m 398.224,305.741 c -5.314,-7.161 -18.437,-21.413 -27.961,-27.762 -2.862,-1.974 -6.694,-1.263 -8.33,0.755 8.702,6.303 22.13,18.936 31.137,32.163 1.857,2.582 3.561,5.199 5.045,7.807 5.141,-1.675 4.162,-6.811 0.109,-12.963 z"
   id="path23" />
				</g>
				<g
   id="g26">
					<path
   style="fill:#9e6f5e"
   d="m 300.13,348.112 c 6.349,9.524 20.601,22.647 27.762,27.961 -0.423,-0.279 -0.85,-0.571 -1.281,-0.877 -6.825,-4.847 -21.999,-18.664 -28.607,-28.576 -2.203,-3.194 -1.066,-7.605 1.504,-8.814 0.417,0.626 0.877,1.286 1.377,1.976 -2.017,1.636 -2.729,5.468 -0.755,8.33 z"
   id="path24" />
					<path
   style="fill:#795548"
   d="m 340.954,375.69 c -0.029,0.099 -0.068,0.179 -0.099,0.274 -2.609,-1.485 -5.225,-3.188 -7.807,-5.045 2.627,1.788 5.277,3.403 7.906,4.771 z"
   id="path25" />
					<path
   style="fill:#6d4c41"
   d="m 327.892,376.073 c -7.161,-5.314 -21.413,-18.437 -27.762,-27.961 -1.974,-2.862 -1.263,-6.694 0.755,-8.33 6.303,8.702 18.936,22.13 32.163,31.137 2.582,1.857 5.199,3.561 7.807,5.045 -1.675,5.141 -6.811,4.162 -12.963,0.109 z"
   id="path26" />
				</g>
			</g>
			<g
   id="g40">
				
					<rect
   x="131.064"
   y="75.487"
   transform="matrix(-0.7071,-0.7071,0.7071,-0.7071,142.865,297.4687)"
   style="fill:#5d4037"
   width="3.9530001"
   height="87.318001"
   id="rect27" />
				
					<rect
   x="151.425"
   y="93.111"
   transform="matrix(-0.7071,-0.7071,0.7071,-0.7071,163.2296,346.6239)"
   style="fill:#5d4037"
   width="3.9530001"
   height="92.791"
   id="rect28" />
				<g
   id="g34">
					<g
   id="g29">
						<path
   style="fill:#8c6e63"
   d="m 139.735,57.252 -3.02,-3.02 c -13.838,4.377 -30.649,16.614 -39.467,25.433 -8.819,8.819 -19.772,21.016 -27.07,40.598 0.051,-0.051 3.364,3.169 3.364,3.169 0,0 12.997,-23.649 28.267,-38.919 15.27,-15.27 33.844,-25.884 37.926,-27.261 z"
   id="path28" />
						<path
   style="fill:#795548"
   d="m 134.23,59.566 c 2.247,-1.127 5.505,-2.314 5.505,-2.314 l 1.357,2.896 11.044,29.452 -3.14,1.191 -12.344,-28.803 c -1.562,0.73 -3.156,1.519 -4.769,2.358 l 13.326,28.041 -3.028,1.453 -14.504,-27.208 c -1.817,1.031 -3.65,2.131 -5.492,3.301 l 17.189,26.007 -2.795,1.862 -18.395,-25.222 c -1.591,1.096 -3.181,2.247 -4.765,3.451 l 19.154,24.231 -2.627,2.093 -20.278,-23.354 c -1.961,1.615 -3.902,3.317 -5.812,5.108 l 21.661,22.005 -2.953,2.953 -22.334,-21.403 c -1.707,1.747 -3.382,3.564 -5.01,5.466 l 23.418,20.334 -2.092,2.627 -24.355,-19.253 c -1.241,1.584 -2.451,3.216 -3.623,4.902 l 25.467,18.609 -1.862,2.795 -26.249,-17.402 c -1.139,1.808 -2.236,3.668 -3.284,5.585 l 27.432,14.623 -1.453,3.028 -28.181,-13.392 c -0.771,1.579 -1.515,3.186 -2.217,4.835 l 28.803,12.344 -1.191,3.14 -29.452,-11.045 -2.837,-1.429 c 0,0 1.391,-3.544 2.255,-5.434 C 88.818,87.424 114.016,69.01 134.23,59.566 Z"
   id="path29" />
					</g>
					<g
   id="g33">
						<path
   style="fill:#1a1a1a"
   d="m 148.383,86.594 c 1.976,-1.197 4.483,-1.168 6.435,0.067 10.933,6.914 20.775,14.919 29.548,23.993 -7.811,-7.552 -16.411,-14.314 -25.821,-20.266 -1.953,-1.235 -4.459,-1.264 -6.435,-0.066 -19.683,11.927 -35.488,27.732 -47.415,47.415 -1.197,1.976 -1.169,4.482 0.066,6.435 5.952,9.411 12.714,18.011 20.266,25.822 -9.074,-8.773 -17.078,-18.616 -23.993,-29.548 -1.235,-1.953 -1.264,-4.459 -0.066,-6.435 11.926,-19.685 27.732,-35.49 47.415,-47.417 z"
   id="path30" />
						<g
   id="g32">
							<path
   style="fill:#333333"
   d="m 104.761,144.171 c -1.235,-1.953 -1.264,-4.459 -0.066,-6.435 11.927,-19.683 27.732,-35.488 47.415,-47.415 1.976,-1.197 4.483,-1.169 6.435,0.066 6.089,3.851 11.833,8.047 17.249,12.571 l -58.463,58.463 c -4.523,-5.417 -8.719,-11.161 -12.57,-17.25 z"
   id="path31" />
							<path
   style="fill:#292929"
   d="m 175.794,102.958 c 2.955,2.468 5.815,5.03 8.572,7.695 7.552,7.811 14.314,16.411 20.266,25.822 1.235,1.953 1.264,4.459 0.066,6.435 -11.927,19.683 -27.732,35.488 -47.415,47.415 -1.976,1.197 -4.483,1.169 -6.435,-0.066 -9.411,-5.952 -18.011,-12.714 -25.822,-20.266 -2.666,-2.757 -5.227,-5.618 -7.695,-8.572 z"
   id="path32" />
						</g>
					</g>
				</g>
				<g
   id="g36">
					<path
   style="fill:#9e6f5e"
   d="m 200.127,115.394 c -6.349,-9.523 -20.601,-22.647 -27.762,-27.961 0.423,0.278 0.85,0.571 1.281,0.877 6.825,4.847 21.999,18.664 28.607,28.576 2.203,3.194 1.066,7.605 -1.504,8.814 -0.417,-0.626 -0.877,-1.286 -1.377,-1.976 2.017,-1.637 2.728,-5.469 0.755,-8.33 z"
   id="path34" />
					<path
   style="fill:#795548"
   d="m 159.303,87.815 c 0.029,-0.099 0.068,-0.179 0.098,-0.274 2.609,1.485 5.225,3.188 7.807,5.045 -2.626,-1.788 -5.276,-3.402 -7.905,-4.771 z"
   id="path35" />
					<path
   style="fill:#6d4c41"
   d="m 172.364,87.433 c 7.161,5.314 21.413,18.437 27.762,27.961 1.974,2.862 1.262,6.694 -0.755,8.33 -6.303,-8.702 -18.936,-22.13 -32.163,-31.137 -2.582,-1.857 -5.199,-3.561 -7.807,-5.045 1.676,-5.141 6.812,-4.162 12.963,-0.109 z"
   id="path36" />
				</g>
				<g
   id="g39">
					<path
   style="fill:#9e6f5e"
   d="m 129.993,185.527 c -9.523,-6.349 -22.647,-20.601 -27.961,-27.762 0.279,0.423 0.571,0.85 0.877,1.281 4.847,6.825 18.664,21.999 28.576,28.607 3.194,2.203 7.605,1.066 8.814,-1.504 -0.626,-0.417 -1.286,-0.877 -1.976,-1.377 -1.636,2.017 -5.468,2.728 -8.33,0.755 z"
   id="path37" />
					<path
   style="fill:#795548"
   d="m 102.415,144.703 c -0.099,0.029 -0.179,0.068 -0.274,0.099 1.485,2.609 3.188,5.225 5.045,7.807 -1.788,-2.627 -3.403,-5.277 -4.771,-7.906 z"
   id="path38" />
					<path
   style="fill:#6d4c41"
   d="m 102.033,157.764 c 5.314,7.161 18.437,21.413 27.961,27.762 2.862,1.974 6.694,1.263 8.33,-0.755 -8.702,-6.303 -22.13,-18.936 -31.137,-32.163 -1.857,-2.582 -3.561,-5.199 -5.045,-7.807 -5.141,1.676 -4.162,6.812 -0.109,12.963 z"
   id="path39" />
				</g>
			</g>
			<g
   id="g53">
				
					<rect
   x="134.196"
   y="301.40601"
   transform="matrix(-0.7071,0.7071,-0.7071,-0.7071,476.4591,492.7745)"
   style="fill:#5d4037"
   width="3.9530001"
   height="87.318001"
   id="rect40" />
				
					<rect
   x="154.55701"
   y="278.30899"
   transform="matrix(-0.7071,0.7071,-0.7071,-0.7071,496.8178,443.6252)"
   style="fill:#5d4037"
   width="3.9530001"
   height="92.791"
   id="rect41" />
				<g
   id="g47">
					<g
   id="g42">
						<path
   style="fill:#8c6e63"
   d="m 74.279,338.37 -3.02,3.02 c 4.377,13.838 16.614,30.649 25.433,39.467 8.819,8.819 21.016,19.772 40.598,27.07 -0.051,-0.051 3.169,-3.365 3.169,-3.365 0,0 -23.649,-12.997 -38.918,-28.267 C 86.271,361.027 75.656,342.453 74.279,338.37 Z"
   id="path41" />
						<path
   style="fill:#795548"
   d="m 76.593,343.875 c -1.127,-2.247 -2.314,-5.505 -2.314,-5.505 l 2.896,-1.357 29.452,-11.045 1.191,3.14 -28.802,12.344 c 0.73,1.562 1.519,3.156 2.358,4.769 l 28.041,-13.326 1.453,3.028 -27.208,14.503 c 1.031,1.817 2.131,3.65 3.301,5.493 l 26.008,-17.19 1.862,2.795 -25.223,18.396 c 1.096,1.591 2.247,3.181 3.451,4.765 l 24.231,-19.153 2.093,2.627 -23.354,20.278 c 1.615,1.961 3.317,3.902 5.108,5.812 l 22.005,-21.661 2.953,2.953 -21.406,22.335 c 1.747,1.707 3.564,3.382 5.466,5.01 l 20.334,-23.418 2.627,2.092 -19.251,24.355 c 1.584,1.241 3.216,2.451 4.902,3.623 l 18.609,-25.467 2.795,1.862 -17.402,26.25 c 1.808,1.139 3.668,2.236 5.585,3.283 l 14.623,-27.432 3.028,1.453 -13.392,28.181 c 1.579,0.771 3.186,1.515 4.835,2.217 l 12.344,-28.803 3.14,1.191 -11.045,29.452 -1.429,2.837 c 0,0 -3.544,-1.391 -5.434,-2.255 -30.573,-13.02 -48.987,-38.218 -58.431,-58.432 z"
   id="path42" />
					</g>
					<g
   id="g46">
						<path
   style="fill:#1a1a1a"
   d="m 103.62,329.723 c -1.197,-1.976 -1.169,-4.483 0.067,-6.435 6.914,-10.933 14.919,-20.775 23.993,-29.548 -7.552,7.811 -14.314,16.411 -20.266,25.822 -1.235,1.953 -1.264,4.459 -0.066,6.435 11.927,19.683 27.732,35.488 47.415,47.415 1.976,1.197 4.483,1.169 6.435,-0.066 9.411,-5.952 18.011,-12.714 25.822,-20.266 -8.773,9.074 -18.616,17.078 -29.548,23.993 -1.953,1.235 -4.459,1.264 -6.435,0.066 -19.685,-11.928 -35.49,-27.733 -47.417,-47.416 z"
   id="path43" />
						<g
   id="g45">
							<path
   style="fill:#333333"
   d="m 161.198,373.345 c -1.953,1.235 -4.459,1.264 -6.435,0.066 -19.683,-11.927 -35.488,-27.732 -47.415,-47.415 -1.197,-1.976 -1.169,-4.483 0.066,-6.435 3.851,-6.089 8.047,-11.833 12.571,-17.249 l 58.463,58.463 c -5.417,4.523 -11.161,8.719 -17.25,12.57 z"
   id="path44" />
							<path
   style="fill:#292929"
   d="m 119.984,302.311 c 2.468,-2.955 5.03,-5.815 7.695,-8.572 7.811,-7.552 16.411,-14.314 25.822,-20.266 1.953,-1.235 4.459,-1.264 6.435,-0.066 19.683,11.927 35.488,27.732 47.415,47.415 1.197,1.976 1.169,4.483 -0.066,6.435 -5.952,9.411 -12.714,18.011 -20.266,25.822 -2.757,2.665 -5.618,5.227 -8.572,7.695 z"
   id="path45" />
						</g>
					</g>
				</g>
				<g
   id="g49">
					<path
   style="fill:#9e6f5e"
   d="m 132.42,277.979 c -9.523,6.349 -22.647,20.601 -27.961,27.762 0.278,-0.423 0.571,-0.85 0.877,-1.281 4.847,-6.825 18.664,-21.999 28.576,-28.607 3.194,-2.203 7.605,-1.066 8.814,1.504 -0.626,0.417 -1.286,0.877 -1.976,1.377 -1.636,-2.018 -5.468,-2.729 -8.33,-0.755 z"
   id="path47" />
					<path
   style="fill:#795548"
   d="m 104.842,318.803 c -0.099,-0.029 -0.179,-0.068 -0.274,-0.099 1.485,-2.609 3.188,-5.225 5.045,-7.807 -1.788,2.627 -3.403,5.277 -4.771,7.906 z"
   id="path48" />
					<path
   style="fill:#6d4c41"
   d="m 104.459,305.741 c 5.314,-7.161 18.437,-21.413 27.961,-27.762 2.862,-1.974 6.694,-1.263 8.331,0.755 -8.702,6.303 -22.13,18.936 -31.137,32.163 -1.857,2.582 -3.561,5.199 -5.045,7.807 -5.142,-1.675 -4.162,-6.811 -0.11,-12.963 z"
   id="path49" />
				</g>
				<g
   id="g52">
					<path
   style="fill:#9e6f5e"
   d="m 202.553,348.112 c -6.349,9.524 -20.601,22.647 -27.762,27.961 0.423,-0.279 0.85,-0.571 1.281,-0.877 6.825,-4.847 21.999,-18.664 28.607,-28.576 2.203,-3.194 1.066,-7.605 -1.504,-8.814 -0.417,0.626 -0.877,1.286 -1.377,1.976 2.018,1.636 2.729,5.468 0.755,8.33 z"
   id="path50" />
					<path
   style="fill:#795548"
   d="m 161.73,375.69 c 0.028,0.099 0.068,0.179 0.098,0.274 2.609,-1.485 5.225,-3.188 7.807,-5.045 -2.627,1.788 -5.277,3.403 -7.905,4.771 z"
   id="path51" />
					<path
   style="fill:#6d4c41"
   d="m 174.791,376.073 c 7.161,-5.314 21.413,-18.437 27.762,-27.961 1.974,-2.862 1.262,-6.694 -0.755,-8.33 -6.303,8.702 -18.936,22.13 -32.163,31.137 -2.582,1.857 -5.199,3.561 -7.807,5.045 1.676,5.141 6.812,4.162 12.963,0.109 z"
   id="path52" />
				</g>
			</g>
			<g
   id="g160">
				<path
   style="fill:#795548"
   d="M 236.438,406.982 73.081,243.625 c -7.45,-7.45 -7.45,-19.528 0,-26.978 L 236.438,53.29 c 7.45,-7.45 19.528,-7.45 26.978,0 l 163.357,163.357 c 7.45,7.45 7.45,19.528 0,26.978 L 263.416,406.982 c -7.449,7.45 -19.528,7.45 -26.978,0 z"
   id="path53" />
				<g
   id="g55">
					<circle
   style="fill:#8c6e63"
   cx="249.927"
   cy="230.136"
   r="93.642998"
   id="circle53" />
					<g
   id="g54">
						<circle
   style="fill:none;stroke:#4e342e;stroke-width:0.5221;stroke-miterlimit:10"
   cx="249.927"
   cy="230.136"
   r="89.646004"
   id="circle54" />
						
							<circle
   transform="matrix(0.7071,-0.7071,0.7071,0.7071,-89.5288,244.1306)"
   style="fill:none;stroke:#4e342e;stroke-width:2.0884;stroke-miterlimit:10"
   cx="249.927"
   cy="230.136"
   id="ellipse54"
   r="85.508003" />
					</g>
				</g>
				<g
   id="g73">
					
						<rect
   x="287.66501"
   y="107.257"
   transform="matrix(0.7071,-0.7071,0.7071,0.7071,-21.7485,273.8918)"
   style="opacity:0.31;fill:#5d4037"
   width="64.154999"
   height="111.884"
   id="rect55" />
					
						<rect
   x="287.44299"
   y="105.451"
   transform="matrix(0.7071,-0.7071,0.7071,0.7071,-20.5366,273.2058)"
   style="fill:#fef7e0"
   width="64.154999"
   height="111.884"
   id="rect56" />
					<g
   id="g59">
						
							<rect
   x="300.51001"
   y="124.023"
   transform="matrix(0.7072,-0.707,0.707,0.7072,-39.1154,265.4857)"
   style="fill:#ffe082"
   width="0.87699997"
   height="111.884"
   id="rect57" />
						
							<rect
   x="299.41501"
   y="125.336"
   transform="matrix(0.7071,-0.7071,0.7071,0.7071,-40.4222,264.9689)"
   style="fill:#fec928"
   width="0.43900001"
   height="111.884"
   id="rect58" />
						
							<rect
   x="298.84601"
   y="125.906"
   transform="matrix(0.707,-0.7072,0.7072,0.707,-40.9808,264.7777)"
   style="fill:#ffffff"
   width="0.43900001"
   height="111.884"
   id="rect59" />
					</g>
					<g
   id="g62">
						
							<rect
   x="339.21799"
   y="85.314003"
   transform="matrix(0.707,-0.7072,0.7072,0.707,-0.389,281.5739)"
   style="fill:#ffe082"
   width="0.87699997"
   height="111.884"
   id="rect60" />
						
							<rect
   x="338.12399"
   y="86.627998"
   transform="matrix(0.7071,-0.7071,0.7071,0.7071,-1.7141,281.0019)"
   style="fill:#fec928"
   width="0.43900001"
   height="111.884"
   id="rect61" />
						
							<rect
   x="337.55399"
   y="87.197998"
   transform="matrix(0.7071,-0.7071,0.7071,0.7071,-2.2835,280.7665)"
   style="fill:#ffffff"
   width="0.43900001"
   height="111.884"
   id="rect62" />
					</g>
					<path
   style="opacity:0.18;fill:#3e2723"
   d="m 340.588,183.048 c 9.941,-10.644 9.75,-27.319 -0.629,-37.697 -10.378,-10.378 -27.053,-10.569 -37.697,-0.628 -0.229,0.214 -0.472,0.405 -0.695,0.628 -10.602,10.602 -10.602,27.791 0,38.392 10.602,10.602 27.791,10.602 38.392,0 0.224,-0.223 0.415,-0.466 0.629,-0.695 z m -27.694,-51.723 4.088,-4.088 h -33.529 v 33.529 l 4.088,-4.088 1.241,-1.241 22.872,-22.872 z m 27.979,62.571 c -0.325,-1.178 0.122,-1.57 0.446,-1.843 0.363,-0.306 8.046,-7.151 11.234,-9.818 3.186,-2.665 6.054,-4.027 3.814,-6.271 v 0 c -0.001,-0.001 -0.001,-0.001 -0.002,-0.001 0,-0.001 -0.001,-0.001 -0.001,-0.002 v 0 c -2.244,-2.24 -3.606,0.628 -6.271,3.814 -2.666,3.188 -9.512,10.871 -9.818,11.234 -0.272,0.323 -0.664,0.771 -1.839,0.447 -1.585,-0.809 -3.478,-0.61 -5.469,1.381 -2.617,2.617 -3.278,6.198 -1.478,7.999 1.801,1.801 5.382,1.139 7.998,-1.478 1.989,-1.988 2.191,-3.878 1.386,-5.462 z m 22.986,-10.177 v 0 c -10e-4,-0.002 -0.002,-0.003 -0.003,-0.004 -10e-4,-0.001 -0.002,-0.003 -0.003,-0.004 l -0.001,10e-4 c -2.204,-2.117 -3.567,0.717 -6.205,3.871 -2.666,3.188 -9.512,10.871 -9.818,11.234 -0.272,0.323 -0.664,0.771 -1.839,0.447 -1.428,-0.417 -2.335,0.217 -3.271,1.154 l -5.075,5.075 c -0.619,0.619 -0.242,1.027 0.438,0.347 0.68,-0.68 4.969,-4.275 5.453,-4.637 0.483,-0.362 0.816,-0.362 0.272,0.332 -0.544,0.695 -4.612,5.005 -5.065,5.549 -0.453,0.544 -0.181,0.786 0.332,0.363 0.514,-0.423 5.262,-4.809 5.549,-5.035 0.28,-0.221 0.552,-0.258 0.674,-0.137 0.122,0.121 0.085,0.393 -0.137,0.674 -0.227,0.287 -4.612,5.035 -5.035,5.549 -0.423,0.514 -0.181,0.786 0.362,0.332 0.544,-0.453 4.854,-4.521 5.549,-5.065 0.695,-0.544 0.695,-0.212 0.332,0.272 -0.363,0.483 -3.957,4.773 -4.637,5.453 -0.68,0.68 -0.272,1.057 0.347,0.438 l 5.075,-5.075 c 0.936,-0.937 1.571,-1.843 1.154,-3.271 -0.324,-1.175 0.124,-1.566 0.447,-1.839 0.363,-0.306 8.046,-7.151 11.234,-9.818 3.155,-2.639 5.988,-4.001 3.871,-6.206 z"
   id="path62" />
					<g
   id="g72">
						<g
   id="g64">
							<polygon
   style="fill:#ffffff"
   points="283.453,125.173 316.982,125.173 283.453,158.703 "
   id="polygon62" />
							<g
   id="g63">
								<polygon
   style="fill:#afbdc4"
   points="288.782,130.502 288.782,153.374 287.541,154.615 287.541,129.261 312.894,129.261 311.654,130.502 "
   id="polygon63" />
							</g>
						</g>
						<g
   id="g68">
							<g
   id="g65">
								<path
   style="fill:#8fa3ad"
   d="m 356.364,173.898 -24.875,24.875 c 1.801,1.801 5.382,1.139 7.998,-1.478 1.988,-1.988 2.19,-3.878 1.385,-5.462 -0.325,-1.178 0.122,-1.571 0.446,-1.843 0.363,-0.306 8.046,-7.151 11.234,-9.818 3.186,-2.665 6.054,-4.027 3.814,-6.271 v 0 c 0,-0.001 -10e-4,-0.001 -0.002,-0.001 0.001,-0.001 0.001,-0.002 0,-0.002 z"
   id="path64" />
								<path
   style="fill:#afbdc4"
   d="m 350.093,177.712 c -2.666,3.188 -9.512,10.871 -9.818,11.234 -0.272,0.323 -0.664,0.771 -1.839,0.447 -1.585,-0.809 -3.478,-0.61 -5.469,1.381 -2.617,2.617 -3.278,6.198 -1.478,7.998 l 24.875,-24.875 c -2.244,-2.239 -3.606,0.628 -6.271,3.815 z"
   id="path65" />
							</g>
							<g
   id="g67">
								<path
   style="fill:#afbdc4"
   d="m 363.853,181.648 v 0 c -2.205,-2.117 -3.568,0.717 -6.206,3.872 -2.666,3.188 -9.512,10.871 -9.818,11.234 -0.272,0.324 -0.664,0.771 -1.839,0.447 -1.428,-0.417 -2.335,0.217 -3.271,1.154 l -5.075,5.075 c -0.619,0.619 -0.242,1.027 0.438,0.347 0.68,-0.68 4.969,-4.274 5.453,-4.637 0.483,-0.363 0.816,-0.363 0.272,0.332 -0.544,0.695 -4.612,5.005 -5.065,5.549 -0.453,0.544 -0.181,0.786 0.332,0.363 0.514,-0.423 5.262,-4.809 5.549,-5.035 0.28,-0.221 0.552,-0.258 0.674,-0.137 l 18.56,-18.56 c -0.002,-10e-4 -0.003,-0.002 -0.004,-0.004 z"
   id="path66" />
								<path
   style="fill:#8fa3ad"
   d="m 345.296,200.212 c 0.122,0.122 0.085,0.393 -0.137,0.674 -0.227,0.287 -4.612,5.035 -5.035,5.549 -0.423,0.514 -0.181,0.785 0.362,0.332 0.544,-0.453 4.854,-4.521 5.549,-5.065 0.695,-0.544 0.695,-0.212 0.332,0.272 -0.362,0.483 -3.957,4.773 -4.637,5.453 -0.68,0.68 -0.272,1.057 0.347,0.438 l 5.075,-5.075 c 0.936,-0.936 1.571,-1.843 1.154,-3.271 -0.324,-1.175 0.124,-1.566 0.447,-1.839 0.363,-0.306 8.046,-7.151 11.234,-9.818 3.155,-2.638 5.988,-4.001 3.871,-6.205 l 10e-4,-0.001 c -10e-4,-0.001 -0.003,-0.002 -0.004,-0.003 z"
   id="path67" />
							</g>
						</g>
						<g
   id="g71">
							<path
   style="fill:#ffffff"
   d="m 301.567,181.68 c 10.602,10.602 27.791,10.602 38.392,0 0.223,-0.223 0.414,-0.466 0.629,-0.695 9.941,-10.644 9.75,-27.319 -0.629,-37.697 -10.378,-10.378 -27.053,-10.569 -37.697,-0.628 -0.229,0.214 -0.472,0.405 -0.695,0.628 -10.601,10.602 -10.601,27.79 0,38.392 z"
   id="path68" />
							<g
   id="g70">
								<path
   style="fill:#baddf9"
   d="m 308.345,174.903 c -7.211,-7.211 -7.344,-18.798 -0.437,-26.194 -0.159,0.149 -0.328,0.281 -0.483,0.437 -7.367,7.367 -7.367,19.311 0,26.677 7.367,7.367 19.31,7.367 26.677,0 0.155,-0.155 0.288,-0.324 0.437,-0.483 -7.396,6.907 -18.983,6.774 -26.194,-0.437 z"
   id="path69" />
								<path
   style="fill:#e3f1fc"
   d="m 334.102,149.145 c -7.211,-7.212 -18.798,-7.344 -26.194,-0.437 -6.907,7.396 -6.775,18.983 0.437,26.194 7.212,7.212 18.798,7.344 26.194,0.437 6.907,-7.396 6.775,-18.982 -0.437,-26.194 z"
   id="path70" />
							</g>
						</g>
					</g>
				</g>
				<g
   id="g91">
					
						<rect
   x="148.088"
   y="106.243"
   transform="matrix(-0.7071,-0.7071,0.7071,-0.7071,192.8793,404.2625)"
   style="opacity:0.31;fill:#5d4037"
   width="64.154999"
   height="111.884"
   id="rect73" />
					
						<rect
   x="146.282"
   y="106.465"
   transform="matrix(-0.7071,-0.7071,0.7071,-0.7071,189.6396,403.3648)"
   style="fill:#fef7e0"
   width="64.154999"
   height="111.884"
   id="rect74" />
					<g
   id="g77">
						
							<rect
   x="196.493"
   y="125.037"
   transform="matrix(-0.707,-0.7072,0.7072,-0.707,208.19,448.2022)"
   style="fill:#ffe082"
   width="0.87699997"
   height="111.884"
   id="rect75" />
						
							<rect
   x="198.026"
   y="126.35"
   transform="matrix(-0.7071,-0.7071,0.7071,-0.7071,209.5324,451.3725)"
   style="fill:#fec928"
   width="0.43900001"
   height="111.884"
   id="rect76" />
						
							<rect
   x="198.595"
   y="126.92"
   transform="matrix(-0.7072,-0.707,0.707,-0.7072,210.1382,452.7459)"
   style="fill:#ffffff"
   width="0.43900001"
   height="111.884"
   id="rect77" />
					</g>
					<g
   id="g80">
						
							<rect
   x="157.784"
   y="86.328003"
   transform="matrix(-0.7072,-0.707,0.707,-0.7072,169.5204,354.7505)"
   style="fill:#ffe082"
   width="0.87699997"
   height="111.884"
   id="rect78" />
						
							<rect
   x="159.317"
   y="87.641998"
   transform="matrix(-0.7071,-0.7071,0.7071,-0.7071,170.8095,357.9232)"
   style="fill:#fec928"
   width="0.43900001"
   height="111.884"
   id="rect79" />
						
							<rect
   x="159.88699"
   y="88.211998"
   transform="matrix(-0.7071,-0.7071,0.7071,-0.7071,171.3864,359.2978)"
   style="fill:#ffffff"
   width="0.43900001"
   height="111.884"
   id="rect80" />
					</g>
					<path
   style="opacity:0.18;fill:#3e2723"
   d="m 200.015,141.339 c -10.644,-9.941 -27.319,-9.75 -37.697,0.629 -10.378,10.378 -10.569,27.053 -0.628,37.697 0.214,0.229 0.405,0.472 0.628,0.695 10.602,10.602 27.791,10.602 38.392,0 10.602,-10.602 10.602,-27.791 0,-38.392 -0.224,-0.224 -0.466,-0.415 -0.695,-0.629 z m -51.724,27.694 -4.088,-4.088 v 33.529 h 33.529 l -4.088,-4.088 -1.241,-1.241 -22.872,-22.872 z m 62.571,-27.979 c -1.178,0.325 -1.571,-0.122 -1.843,-0.446 -0.306,-0.363 -7.151,-8.046 -9.818,-11.234 -2.665,-3.186 -4.027,-6.054 -6.271,-3.814 v 0 c -0.001,0 -0.001,0.001 -0.001,0.002 -0.001,0.001 -0.001,0.001 -0.002,0.001 v 0 c -2.24,2.244 0.628,3.606 3.814,6.271 3.188,2.666 10.871,9.512 11.234,9.818 0.323,0.272 0.771,0.664 0.447,1.839 -0.809,1.585 -0.61,3.478 1.381,5.469 2.617,2.617 6.198,3.278 7.999,1.478 1.801,-1.801 1.139,-5.382 -1.478,-7.998 -1.988,-1.989 -3.878,-2.191 -5.462,-1.386 z m -10.176,-22.986 v 0 c -0.002,0.001 -0.003,0.002 -0.004,0.003 -10e-4,0.001 -0.003,0.002 -0.004,0.003 l 0.001,0.001 c -2.117,2.204 0.717,3.567 3.871,6.205 3.188,2.666 10.871,9.512 11.234,9.818 0.324,0.272 0.771,0.664 0.447,1.839 -0.417,1.429 0.217,2.335 1.154,3.271 l 5.075,5.075 c 0.619,0.619 1.027,0.242 0.347,-0.438 -0.68,-0.68 -4.275,-4.969 -4.637,-5.453 -0.362,-0.483 -0.362,-0.816 0.332,-0.272 0.695,0.544 5.005,4.612 5.549,5.065 0.544,0.453 0.785,0.181 0.362,-0.332 -0.423,-0.514 -4.808,-5.262 -5.035,-5.549 -0.221,-0.281 -0.258,-0.552 -0.137,-0.674 0.122,-0.122 0.393,-0.084 0.674,0.137 0.287,0.227 5.035,4.612 5.549,5.035 0.514,0.423 0.785,0.181 0.332,-0.362 -0.453,-0.544 -4.521,-4.854 -5.065,-5.549 -0.544,-0.695 -0.212,-0.695 0.272,-0.332 0.483,0.362 4.773,3.957 5.453,4.637 0.68,0.68 1.057,0.272 0.438,-0.347 l -5.075,-5.075 c -0.936,-0.937 -1.843,-1.571 -3.271,-1.154 -1.175,0.324 -1.566,-0.124 -1.839,-0.447 -0.306,-0.363 -7.151,-8.046 -9.817,-11.234 -2.639,-3.155 -4.002,-5.988 -6.206,-3.871 z"
   id="path80" />
					<g
   id="g90">
						<g
   id="g82">
							<polygon
   style="fill:#ffffff"
   points="142.14,198.474 142.14,164.945 175.669,198.474 "
   id="polygon80" />
							<g
   id="g81">
								<polygon
   style="fill:#afbdc4"
   points="147.469,193.145 170.34,193.145 171.581,194.386 146.228,194.386 146.228,169.033 147.469,170.273 "
   id="polygon81" />
							</g>
						</g>
						<g
   id="g86">
							<g
   id="g83">
								<path
   style="fill:#8fa3ad"
   d="m 190.864,125.563 24.875,24.875 c 1.8,-1.801 1.139,-5.382 -1.478,-7.998 -1.988,-1.988 -3.878,-2.19 -5.462,-1.385 -1.178,0.325 -1.571,-0.122 -1.843,-0.446 -0.306,-0.363 -7.151,-8.046 -9.818,-11.234 -2.665,-3.186 -4.027,-6.054 -6.271,-3.814 v 0 c -10e-4,0 -10e-4,10e-4 -10e-4,0.002 -0.001,-0.001 -0.001,-0.001 -0.002,0 z"
   id="path82" />
								<path
   style="fill:#afbdc4"
   d="m 194.678,131.834 c 3.188,2.666 10.871,9.512 11.234,9.818 0.323,0.272 0.771,0.664 0.447,1.839 -0.809,1.585 -0.61,3.478 1.381,5.469 2.617,2.617 6.198,3.278 7.999,1.478 l -24.875,-24.875 c -2.24,2.244 0.628,3.606 3.814,6.271 z"
   id="path83" />
							</g>
							<g
   id="g85">
								<path
   style="fill:#afbdc4"
   d="m 198.615,118.074 v 0 c -2.117,2.205 0.717,3.568 3.872,6.206 3.188,2.666 10.871,9.512 11.234,9.818 0.324,0.272 0.771,0.664 0.447,1.839 -0.417,1.429 0.217,2.335 1.154,3.271 l 5.075,5.075 c 0.619,0.619 1.027,0.242 0.347,-0.438 -0.68,-0.68 -4.275,-4.969 -4.637,-5.453 -0.363,-0.483 -0.363,-0.816 0.332,-0.272 0.695,0.544 5.005,4.612 5.549,5.065 0.544,0.453 0.786,0.181 0.363,-0.332 -0.423,-0.514 -4.809,-5.262 -5.035,-5.549 -0.221,-0.281 -0.258,-0.552 -0.137,-0.674 l -18.56,-18.56 c -0.002,0.002 -0.003,0.003 -0.004,0.004 z"
   id="path84" />
								<path
   style="fill:#8fa3ad"
   d="m 217.179,136.631 c 0.121,-0.122 0.393,-0.085 0.674,0.137 0.287,0.227 5.035,4.612 5.549,5.035 0.514,0.423 0.785,0.181 0.332,-0.362 -0.453,-0.544 -4.521,-4.854 -5.065,-5.549 -0.544,-0.695 -0.212,-0.695 0.272,-0.332 0.483,0.362 4.773,3.957 5.453,4.637 0.68,0.68 1.057,0.272 0.438,-0.347 l -5.075,-5.075 c -0.937,-0.937 -1.843,-1.571 -3.271,-1.154 -1.175,0.324 -1.567,-0.124 -1.839,-0.447 -0.306,-0.363 -7.151,-8.046 -9.818,-11.234 -2.638,-3.155 -4.001,-5.988 -6.205,-3.871 l -0.001,-0.001 c -10e-4,0.001 -0.002,0.002 -0.003,0.004 z"
   id="path85" />
							</g>
						</g>
						<g
   id="g89">
							<path
   style="fill:#ffffff"
   d="m 198.647,180.36 c 10.602,-10.602 10.602,-27.791 0,-38.392 -0.223,-0.223 -0.466,-0.414 -0.695,-0.629 -10.644,-9.941 -27.319,-9.75 -37.697,0.629 -10.378,10.378 -10.569,27.053 -0.629,37.697 0.214,0.229 0.405,0.472 0.629,0.695 10.601,10.601 27.79,10.601 38.392,0 z"
   id="path86" />
							<g
   id="g88">
								<path
   style="fill:#baddf9"
   d="m 191.869,173.582 c -7.211,7.212 -18.798,7.344 -26.194,0.437 0.149,0.159 0.282,0.328 0.437,0.483 7.367,7.367 19.311,7.367 26.677,0 7.367,-7.367 7.367,-19.31 0,-26.677 -0.155,-0.155 -0.324,-0.288 -0.483,-0.437 6.907,7.396 6.775,18.983 -0.437,26.194 z"
   id="path87" />
								<path
   style="fill:#e3f1fc"
   d="m 166.112,147.825 c -7.211,7.211 -7.344,18.798 -0.437,26.194 7.396,6.907 18.983,6.775 26.194,-0.437 7.212,-7.212 7.344,-18.798 0.437,-26.194 -7.396,-6.907 -18.983,-6.775 -26.194,0.437 z"
   id="path88" />
							</g>
						</g>
					</g>
				</g>
				<g
   id="g109">
					
						<rect
   x="147.336"
   y="240.62199"
   transform="matrix(-0.7071,0.7071,-0.7071,-0.7071,515.9793,379.4024)"
   style="opacity:0.31;fill:#5d4037"
   width="64.154999"
   height="111.884"
   id="rect91" />
					
						<rect
   x="147.558"
   y="242.42799"
   transform="matrix(-0.7071,0.7071,-0.7071,-0.7071,517.6354,382.328)"
   style="fill:#fef7e0"
   width="64.154999"
   height="111.884"
   id="rect92" />
					<g
   id="g95">
						
							<rect
   x="197.76801"
   y="223.856"
   transform="matrix(-0.7071,0.7072,-0.7072,-0.7071,536.2111,337.4688)"
   style="fill:#ffe082"
   width="0.87699997"
   height="111.884"
   id="rect93" />
						
							<rect
   x="199.30099"
   y="222.54201"
   transform="matrix(-0.7071,0.7071,-0.7071,-0.7071,537.5226,334.31)"
   style="fill:#fec928"
   width="0.43900001"
   height="111.884"
   id="rect94" />
						
							<rect
   x="199.871"
   y="221.97301"
   transform="matrix(-0.7071,0.7071,-0.7071,-0.7071,538.0905,332.9448)"
   style="fill:#ffffff"
   width="0.43900001"
   height="111.884"
   id="rect95" />
					</g>
					<g
   id="g98">
						
							<rect
   x="159.06"
   y="262.564"
   transform="matrix(-0.7071,0.7071,-0.7071,-0.7071,497.4979,430.9448)"
   style="fill:#ffe082"
   width="0.87699997"
   height="111.884"
   id="rect96" />
						
							<rect
   x="160.593"
   y="261.25"
   transform="matrix(-0.7071,0.7071,-0.7071,-0.7071,498.8127,427.7696)"
   style="fill:#fec928"
   width="0.43900001"
   height="111.884"
   id="rect97" />
						
							<rect
   x="161.16299"
   y="260.681"
   transform="matrix(-0.7072,0.707,-0.707,-0.7072,499.3646,426.4491)"
   style="fill:#ffffff"
   width="0.43900001"
   height="111.884"
   id="rect98" />
					</g>
					<path
   style="opacity:0.18;fill:#3e2723"
   d="m 159.523,280.673 c -9.941,10.644 -9.75,27.319 0.628,37.697 10.378,10.378 27.053,10.569 37.697,0.629 0.229,-0.214 0.472,-0.405 0.695,-0.629 10.602,-10.602 10.602,-27.791 0,-38.392 -10.602,-10.602 -27.791,-10.602 -38.392,0 -0.223,0.223 -0.414,0.466 -0.628,0.695 z m 27.693,51.724 -4.088,4.088 h 33.529 v -33.529 l -4.088,4.088 -1.241,1.241 -22.872,22.872 z m -27.979,-62.572 c 0.326,1.178 -0.122,1.57 -0.446,1.843 -0.363,0.306 -8.046,7.151 -11.234,9.818 -3.186,2.665 -6.054,4.027 -3.814,6.271 v 0 c 0,10e-4 0.001,10e-4 0.002,10e-4 0.001,0.001 0.001,0.001 0.001,0.002 v 0 c 2.244,2.24 3.606,-0.628 6.271,-3.814 2.666,-3.188 9.512,-10.871 9.818,-11.234 0.273,-0.323 0.664,-0.771 1.839,-0.447 1.586,0.809 3.478,0.61 5.469,-1.381 2.617,-2.617 3.279,-6.198 1.478,-7.998 -1.801,-1.801 -5.382,-1.139 -7.998,1.478 -1.988,1.987 -2.19,3.877 -1.386,5.461 z m -22.986,10.177 v 0 c 0.001,0.002 0.002,0.003 0.003,0.004 0.001,0.001 0.002,0.003 0.003,0.004 l 0.001,-10e-4 c 2.204,2.117 3.567,-0.717 6.205,-3.871 2.666,-3.188 9.512,-10.871 9.818,-11.234 0.272,-0.324 0.664,-0.771 1.839,-0.447 1.429,0.417 2.335,-0.217 3.271,-1.154 l 5.075,-5.075 c 0.619,-0.619 0.242,-1.027 -0.438,-0.347 -0.68,0.68 -4.969,4.275 -5.453,4.637 -0.484,0.362 -0.816,0.362 -0.272,-0.332 0.544,-0.695 4.612,-5.005 5.065,-5.549 0.453,-0.544 0.181,-0.785 -0.332,-0.362 -0.514,0.423 -5.262,4.809 -5.549,5.035 -0.281,0.221 -0.552,0.258 -0.674,0.137 -0.122,-0.121 -0.084,-0.393 0.137,-0.674 0.227,-0.287 4.612,-5.035 5.035,-5.549 0.423,-0.513 0.181,-0.785 -0.363,-0.332 -0.544,0.453 -4.854,4.521 -5.549,5.065 -0.695,0.544 -0.695,0.211 -0.332,-0.272 0.362,-0.483 3.957,-4.773 4.637,-5.453 0.68,-0.68 0.272,-1.057 -0.347,-0.438 l -5.075,5.075 c -0.937,0.937 -1.571,1.843 -1.154,3.271 0.324,1.175 -0.124,1.566 -0.447,1.839 -0.363,0.306 -8.046,7.151 -11.234,9.818 -3.153,2.638 -5.987,4.001 -3.87,6.205 z"
   id="path98" />
					<g
   id="g108">
						<g
   id="g100">
							<polygon
   style="fill:#ffffff"
   points="215.702,334.589 182.173,334.589 215.702,301.06 "
   id="polygon98" />
							<g
   id="g99">
								<polygon
   style="fill:#afbdc4"
   points="210.373,329.26 210.373,306.389 211.614,305.148 211.614,330.501 186.261,330.501 187.502,329.26 "
   id="polygon99" />
							</g>
						</g>
						<g
   id="g104">
							<g
   id="g101">
								<path
   style="fill:#8fa3ad"
   d="m 142.791,285.865 24.875,-24.875 c -1.8,-1.801 -5.382,-1.139 -7.998,1.478 -1.988,1.988 -2.19,3.878 -1.385,5.462 0.326,1.178 -0.122,1.571 -0.446,1.843 -0.363,0.306 -8.046,7.151 -11.234,9.818 -3.186,2.665 -6.053,4.027 -3.814,6.271 v 0 c 0.001,10e-4 0.001,10e-4 0.002,10e-4 -0.001,10e-4 -0.001,10e-4 0,0.002 z"
   id="path100" />
								<path
   style="fill:#afbdc4"
   d="m 149.062,282.051 c 2.666,-3.188 9.512,-10.871 9.817,-11.234 0.273,-0.323 0.664,-0.771 1.839,-0.447 1.586,0.809 3.478,0.61 5.469,-1.381 2.617,-2.617 3.278,-6.198 1.478,-7.998 l -24.875,24.875 c 2.245,2.239 3.607,-0.629 6.272,-3.815 z"
   id="path101" />
							</g>
							<g
   id="g103">
								<path
   style="fill:#afbdc4"
   d="m 135.302,278.114 v 0 c 2.205,2.116 3.568,-0.717 6.206,-3.872 2.666,-3.188 9.512,-10.871 9.817,-11.234 0.272,-0.323 0.664,-0.771 1.839,-0.447 1.428,0.417 2.335,-0.217 3.271,-1.154 l 5.075,-5.075 c 0.619,-0.619 0.242,-1.027 -0.438,-0.347 -0.68,0.68 -4.969,4.275 -5.453,4.637 -0.483,0.363 -0.816,0.363 -0.272,-0.332 0.544,-0.695 4.612,-5.005 5.065,-5.549 0.453,-0.544 0.181,-0.786 -0.332,-0.363 -0.514,0.423 -5.262,4.809 -5.549,5.035 -0.281,0.221 -0.552,0.258 -0.674,0.137 l -18.56,18.56 c 0.003,0.002 0.004,0.003 0.005,0.004 z"
   id="path102" />
								<path
   style="fill:#8fa3ad"
   d="m 153.859,259.55 c -0.121,-0.122 -0.085,-0.393 0.137,-0.674 0.227,-0.287 4.612,-5.035 5.035,-5.549 0.423,-0.513 0.181,-0.785 -0.362,-0.332 -0.544,0.453 -4.854,4.521 -5.549,5.065 -0.695,0.544 -0.695,0.212 -0.332,-0.272 0.363,-0.483 3.957,-4.773 4.637,-5.453 0.68,-0.68 0.272,-1.057 -0.347,-0.438 l -5.075,5.075 c -0.936,0.936 -1.571,1.843 -1.154,3.271 0.324,1.175 -0.124,1.566 -0.447,1.839 -0.363,0.306 -8.046,7.151 -11.234,9.818 -3.154,2.638 -5.988,4.001 -3.871,6.205 l -0.001,10e-4 c 0.001,0.001 0.003,0.002 0.004,0.003 z"
   id="path103" />
							</g>
						</g>
						<g
   id="g107">
							<path
   style="fill:#ffffff"
   d="m 197.588,278.082 c -10.602,-10.602 -27.791,-10.602 -38.392,0 -0.223,0.223 -0.415,0.466 -0.629,0.695 -9.941,10.644 -9.75,27.319 0.629,37.697 10.378,10.378 27.053,10.569 37.697,0.629 0.229,-0.214 0.472,-0.405 0.695,-0.629 10.602,-10.601 10.602,-27.79 0,-38.392 z"
   id="path104" />
							<g
   id="g106">
								<path
   style="fill:#baddf9"
   d="m 190.81,284.86 c 7.211,7.211 7.344,18.798 0.437,26.194 0.159,-0.149 0.328,-0.281 0.483,-0.437 7.367,-7.367 7.367,-19.311 0,-26.677 -7.367,-7.367 -19.31,-7.367 -26.677,0 -0.155,0.155 -0.288,0.324 -0.437,0.483 7.397,-6.907 18.983,-6.775 26.194,0.437 z"
   id="path105" />
								<path
   style="fill:#e3f1fc"
   d="m 165.053,310.617 c 7.211,7.211 18.798,7.344 26.194,0.437 6.908,-7.396 6.775,-18.983 -0.437,-26.194 -7.211,-7.211 -18.798,-7.344 -26.194,-0.437 -6.907,7.396 -6.774,18.983 0.437,26.194 z"
   id="path106" />
							</g>
						</g>
					</g>
				</g>
				<g
   id="g127">
					
						<rect
   x="286.91299"
   y="241.636"
   transform="matrix(0.7071,0.7071,-0.7071,0.7071,303.8488,-138.4016)"
   style="opacity:0.31;fill:#5d4037"
   width="64.154999"
   height="111.884"
   id="rect109" />
					
						<rect
   x="288.71899"
   y="241.414"
   transform="matrix(0.7071,0.7071,-0.7071,0.7071,304.2211,-139.7435)"
   style="fill:#fef7e0"
   width="64.154999"
   height="111.884"
   id="rect110" />
					<g
   id="g113">
						
							<rect
   x="301.785"
   y="222.842"
   transform="matrix(0.7071,0.7071,-0.7071,0.7071,285.644,-132.0506)"
   style="fill:#ffe082"
   width="0.87699997"
   height="111.884"
   id="rect111" />
						
							<rect
   x="300.69101"
   y="221.528"
   transform="matrix(0.7071,0.7071,-0.7071,0.7071,284.3462,-131.5071)"
   style="fill:#fec928"
   width="0.43900001"
   height="111.884"
   id="rect112" />
						
							<rect
   x="300.12201"
   y="220.959"
   transform="matrix(0.7071,0.7071,-0.7071,0.7071,283.7547,-131.2703)"
   style="fill:#ffffff"
   width="0.43900001"
   height="111.884"
   id="rect113" />
					</g>
					<g
   id="g116">
						
							<rect
   x="340.49399"
   y="261.54999"
   transform="matrix(0.7071,0.7071,-0.7071,0.7071,324.3575,-148.0843)"
   style="fill:#ffe082"
   width="0.87699997"
   height="111.884"
   id="rect114" />
						
							<rect
   x="339.39899"
   y="260.23599"
   transform="matrix(0.7072,0.707,-0.707,0.7072,322.9691,-147.5374)"
   style="fill:#fec928"
   width="0.43900001"
   height="111.884"
   id="rect115" />
						
							<rect
   x="338.82999"
   y="259.66699"
   transform="matrix(0.7071,0.7071,-0.7071,0.7071,322.488,-147.3047)"
   style="fill:#ffffff"
   width="0.43900001"
   height="111.884"
   id="rect116" />
					</g>
					<path
   style="opacity:0.18;fill:#3e2723"
   d="m 300.109,320.063 c 10.644,9.941 27.319,9.75 37.697,-0.629 10.378,-10.378 10.569,-27.053 0.629,-37.697 -0.214,-0.229 -0.405,-0.472 -0.629,-0.695 -10.602,-10.602 -27.791,-10.602 -38.392,0 -10.602,10.602 -10.602,27.79 0,38.392 0.223,0.224 0.466,0.415 0.695,0.629 z m 51.724,-27.694 4.088,4.088 v -33.529 h -33.529 l 4.088,4.088 1.241,1.241 22.872,22.872 z m -62.572,27.979 c 1.178,-0.326 1.571,0.122 1.843,0.446 0.306,0.363 7.151,8.046 9.818,11.234 2.665,3.186 4.027,6.054 6.271,3.814 v 0 c 0,0 0.001,-10e-4 0.001,-0.002 0,-10e-4 10e-4,-10e-4 0.002,-10e-4 v 0 c 2.24,-2.244 -0.627,-3.606 -3.814,-6.271 -3.188,-2.666 -10.871,-9.512 -11.234,-9.818 -0.324,-0.272 -0.771,-0.664 -0.447,-1.839 0.809,-1.586 0.61,-3.478 -1.381,-5.469 -2.617,-2.617 -6.198,-3.279 -7.998,-1.478 -1.801,1.801 -1.139,5.382 1.478,7.998 1.987,1.988 3.878,2.19 5.461,1.386 z m 10.177,22.986 v 0 c 0.002,-10e-4 0.003,-0.002 0.004,-0.003 10e-4,-0.001 0.003,-0.002 0.004,-0.003 l -0.001,-10e-4 c 2.117,-2.204 -0.717,-3.567 -3.871,-6.205 -3.188,-2.666 -10.871,-9.512 -11.234,-9.818 -0.324,-0.272 -0.771,-0.664 -0.447,-1.839 0.417,-1.428 -0.217,-2.335 -1.154,-3.271 l -5.075,-5.075 c -0.619,-0.619 -1.027,-0.242 -0.347,0.438 0.68,0.68 4.275,4.969 4.637,5.453 0.362,0.483 0.362,0.816 -0.332,0.272 -0.695,-0.544 -5.005,-4.612 -5.549,-5.065 -0.544,-0.453 -0.785,-0.181 -0.362,0.332 0.423,0.513 4.809,5.262 5.035,5.549 0.221,0.28 0.258,0.552 0.137,0.674 -0.121,0.121 -0.393,0.085 -0.674,-0.137 -0.287,-0.227 -5.035,-4.612 -5.549,-5.035 -0.514,-0.423 -0.786,-0.181 -0.332,0.362 0.453,0.544 4.521,4.854 5.065,5.549 0.544,0.695 0.211,0.695 -0.272,0.332 -0.483,-0.363 -4.773,-3.957 -5.453,-4.637 -0.68,-0.68 -1.057,-0.272 -0.438,0.347 l 5.075,5.075 c 0.937,0.936 1.843,1.571 3.271,1.154 1.175,-0.324 1.566,0.124 1.839,0.447 0.306,0.363 7.151,8.046 9.818,11.234 2.638,3.154 4.001,5.988 6.205,3.871 z"
   id="path116" />
					<g
   id="g126">
						<g
   id="g118">
							<polygon
   style="fill:#ffffff"
   points="357.015,261.289 357.015,294.818 323.486,261.289 "
   id="polygon116" />
							<g
   id="g117">
								<polygon
   style="fill:#afbdc4"
   points="351.686,266.617 328.815,266.617 327.574,265.376 352.927,265.376 352.927,290.73 351.687,289.489 "
   id="polygon117" />
							</g>
						</g>
						<g
   id="g122">
							<g
   id="g119">
								<path
   style="fill:#8fa3ad"
   d="m 308.291,334.2 -24.875,-24.875 c -1.801,1.801 -1.139,5.382 1.478,7.999 1.988,1.988 3.878,2.19 5.462,1.385 1.178,-0.326 1.57,0.122 1.843,0.446 0.306,0.363 7.151,8.046 9.818,11.234 2.665,3.186 4.027,6.054 6.271,3.814 v 0 c 10e-4,0 10e-4,-10e-4 10e-4,-0.002 0.001,0 0.002,-0.001 0.002,-0.001 z"
   id="path118" />
								<path
   style="fill:#afbdc4"
   d="m 304.477,327.929 c -3.188,-2.666 -10.871,-9.512 -11.234,-9.818 -0.323,-0.272 -0.771,-0.664 -0.447,-1.839 0.809,-1.586 0.61,-3.478 -1.381,-5.469 -2.617,-2.617 -6.198,-3.279 -7.999,-1.478 l 24.875,24.875 c 2.24,-2.244 -0.628,-3.606 -3.814,-6.271 z"
   id="path119" />
							</g>
							<g
   id="g121">
								<path
   style="fill:#afbdc4"
   d="m 300.54,341.688 v 0 c 2.117,-2.205 -0.717,-3.568 -3.872,-6.206 -3.188,-2.666 -10.871,-9.512 -11.234,-9.818 -0.323,-0.272 -0.771,-0.664 -0.447,-1.839 0.417,-1.428 -0.217,-2.335 -1.154,-3.271 l -5.075,-5.075 c -0.619,-0.619 -1.027,-0.242 -0.347,0.438 0.68,0.68 4.275,4.969 4.637,5.453 0.362,0.483 0.362,0.816 -0.332,0.272 -0.695,-0.544 -5.005,-4.612 -5.549,-5.065 -0.544,-0.453 -0.785,-0.181 -0.363,0.332 0.423,0.514 4.809,5.262 5.035,5.549 0.221,0.281 0.259,0.552 0.137,0.674 l 18.56,18.56 c 0.002,-0.002 0.003,-0.002 0.004,-0.004 z"
   id="path120" />
								<path
   style="fill:#8fa3ad"
   d="m 281.976,323.131 c -0.121,0.122 -0.393,0.085 -0.674,-0.137 -0.287,-0.227 -5.035,-4.612 -5.549,-5.035 -0.513,-0.423 -0.785,-0.181 -0.332,0.362 0.453,0.544 4.522,4.854 5.065,5.549 0.544,0.695 0.211,0.695 -0.272,0.332 -0.483,-0.362 -4.773,-3.957 -5.453,-4.637 -0.68,-0.68 -1.057,-0.272 -0.438,0.347 l 5.075,5.075 c 0.936,0.936 1.843,1.571 3.271,1.154 1.175,-0.324 1.567,0.124 1.839,0.447 0.306,0.363 7.151,8.046 9.818,11.234 2.638,3.155 4.001,5.988 6.205,3.871 h 10e-4 c 0.001,-10e-4 0.002,-0.003 0.003,-0.004 z"
   id="path121" />
							</g>
						</g>
						<g
   id="g125">
							<path
   style="fill:#ffffff"
   d="m 300.509,279.403 c -10.602,10.602 -10.602,27.79 0,38.392 0.223,0.223 0.466,0.414 0.695,0.628 10.644,9.941 27.319,9.75 37.697,-0.628 10.378,-10.378 10.569,-27.053 0.628,-37.697 -0.214,-0.229 -0.405,-0.472 -0.628,-0.695 -10.602,-10.602 -27.791,-10.602 -38.392,0 z"
   id="path122" />
							<g
   id="g124">
								<path
   style="fill:#baddf9"
   d="m 307.286,286.18 c 7.211,-7.212 18.798,-7.344 26.194,-0.437 -0.149,-0.159 -0.282,-0.328 -0.437,-0.483 -7.367,-7.367 -19.311,-7.367 -26.677,0 -7.367,7.367 -7.367,19.311 0,26.677 0.155,0.155 0.324,0.288 0.483,0.437 -6.907,-7.396 -6.774,-18.982 0.437,-26.194 z"
   id="path123" />
								<path
   style="fill:#e3f1fc"
   d="m 333.043,311.938 c 7.211,-7.211 7.344,-18.798 0.437,-26.194 -7.396,-6.907 -18.983,-6.775 -26.194,0.437 -7.211,7.211 -7.344,18.798 -0.437,26.194 7.397,6.907 18.983,6.774 26.194,-0.437 z"
   id="path124" />
							</g>
						</g>
					</g>
				</g>
				<g
   id="g159">
					<g
   id="g137">
						<path
   style="opacity:0.16;fill:#5d4037"
   d="m 249.903,210.666 c 2.172,2.291 4.87,8.469 4.87,8.469 1.328,-0.214 3.428,1.285 3.342,3.171 -0.686,2.399 -5.319,6.522 -8.061,7.336 -1.913,0.568 -3.813,-1.5 -3.556,-3.985 -1.971,-0.343 -6.983,-3.958 -8.569,-6.135 1.327,-4.834 7.796,-9.709 11.974,-8.856 z"
   id="path127" />
						<g
   id="g136">
							<g
   id="g129">
								<path
   style="fill:#ced7db"
   d="m 245.384,209.13 c 1.701,0 3.264,0.576 4.519,1.536 -1.362,-1.782 -3.504,-2.936 -5.92,-2.936 -4.117,0 -7.455,3.338 -7.455,7.455 0,2.416 1.154,4.557 2.936,5.92 -0.959,-1.255 -1.536,-2.818 -1.536,-4.519 0,-4.118 3.338,-7.456 7.456,-7.456 z"
   id="path128" />
								<path
   style="fill:#afbdc4"
   d="m 251.439,215.185 c 0,-1.701 -0.576,-3.265 -1.536,-4.519 -1.255,-0.959 -2.818,-1.536 -4.519,-1.536 -4.118,0 -7.455,3.338 -7.455,7.455 0,1.701 0.576,3.265 1.536,4.519 1.255,0.959 2.818,1.536 4.519,1.536 4.117,0 7.455,-3.338 7.455,-7.455 z"
   id="path129" />
							</g>
							<g
   id="g135">
								<g
   id="g132">
									<circle
   style="fill:#37474f"
   cx="241.07401"
   cy="212.853"
   r="0.86199999"
   id="circle129" />
									<circle
   style="fill:#37474f"
   cx="244.953"
   cy="212.853"
   r="0.86199999"
   id="circle130" />
									<circle
   style="fill:#37474f"
   cx="243.013"
   cy="214.321"
   r="0.86199999"
   id="circle131" />
									<circle
   style="fill:#37474f"
   cx="246.892"
   cy="214.321"
   r="0.86199999"
   id="circle132" />
								</g>
								<g
   id="g134">
									<path
   style="fill:#37474f"
   d="m 241.936,215.69 c 0,0.476 -0.386,0.862 -0.862,0.862 -0.476,0 -0.862,-0.386 -0.862,-0.862 0,-0.476 0.386,-0.862 0.862,-0.862 0.476,0 0.862,0.386 0.862,0.862 z"
   id="path132" />
									<path
   style="fill:#37474f"
   d="m 245.814,215.69 c 0,0.476 -0.386,0.862 -0.862,0.862 -0.476,0 -0.862,-0.386 -0.862,-0.862 0,-0.476 0.386,-0.862 0.862,-0.862 0.477,0 0.862,0.386 0.862,0.862 z"
   id="path133" />
									<circle
   style="fill:#37474f"
   cx="243.013"
   cy="217.157"
   r="0.86199999"
   id="circle133" />
									<circle
   style="fill:#37474f"
   cx="246.892"
   cy="217.157"
   r="0.86199999"
   id="circle134" />
								</g>
							</g>
						</g>
					</g>
					<g
   id="g145">
						<path
   style="opacity:0.16;fill:#5d4037"
   d="m 264.268,225.031 c 2.172,2.291 4.87,8.469 4.87,8.469 1.328,-0.214 3.428,1.285 3.342,3.171 -0.685,2.399 -5.319,6.522 -8.061,7.336 -1.913,0.568 -3.813,-1.5 -3.556,-3.985 -1.971,-0.343 -6.983,-3.958 -8.569,-6.135 1.327,-4.834 7.796,-9.709 11.974,-8.856 z"
   id="path137" />
						<g
   id="g144">
							<g
   id="g139">
								<path
   style="fill:#ced7db"
   d="m 259.749,223.495 c 1.701,0 3.264,0.576 4.519,1.536 -1.362,-1.782 -3.504,-2.936 -5.92,-2.936 -4.117,0 -7.455,3.338 -7.455,7.455 0,2.416 1.154,4.557 2.936,5.92 -0.959,-1.255 -1.536,-2.818 -1.536,-4.519 0,-4.118 3.338,-7.456 7.456,-7.456 z"
   id="path138" />
								<path
   style="fill:#afbdc4"
   d="m 265.804,229.55 c 0,-1.701 -0.576,-3.264 -1.536,-4.519 -1.255,-0.959 -2.818,-1.536 -4.519,-1.536 -4.117,0 -7.455,3.338 -7.455,7.455 0,1.701 0.576,3.264 1.536,4.519 1.255,0.959 2.818,1.536 4.519,1.536 4.117,0 7.455,-3.338 7.455,-7.455 z"
   id="path139" />
							</g>
							<path
   style="fill:#37474f"
   d="m 252.951,228.374 c -1.07,-0.17 -0.821,-2.138 0.771,-3.581 1.588,-1.439 2.788,-1.385 3.108,-0.845 0.398,0.671 -0.746,1.069 -1.84,2.238 -1.17,1.25 -0.945,2.362 -2.039,2.188 z"
   id="path140" />
							<g
   id="g143">
								<path
   style="fill:#37474f"
   d="m 263.452,233.698 c 0,0.321 -0.26,0.581 -0.581,0.581 -0.321,0 -0.581,-0.26 -0.581,-0.581 0,-0.321 0.26,-0.581 0.581,-0.581 0.321,0 0.581,0.26 0.581,0.581 z"
   id="path141" />
								<path
   style="fill:#37474f"
   d="m 264.636,232.12 c 0,0.321 -0.26,0.581 -0.582,0.581 -0.321,0 -0.581,-0.26 -0.581,-0.581 0,-0.321 0.26,-0.581 0.581,-0.581 0.321,-10e-4 0.582,0.26 0.582,0.581 z"
   id="path142" />
								<path
   style="fill:#37474f"
   d="m 261.895,234.861 c 0,0.321 -0.26,0.581 -0.581,0.581 -0.321,0 -0.581,-0.26 -0.581,-0.581 0,-0.321 0.26,-0.581 0.581,-0.581 0.32,-0.001 0.581,0.26 0.581,0.581 z"
   id="path143" />
							</g>
						</g>
					</g>
					<g
   id="g158">
						<path
   style="opacity:0.16;fill:#5d4037"
   d="m 244.459,229.13 c 2.172,2.291 4.87,8.469 4.87,8.469 1.328,-0.214 3.428,1.285 3.342,3.171 -0.685,2.399 -5.319,6.522 -8.061,7.336 -1.913,0.568 -3.813,-1.5 -3.556,-3.985 -1.971,-0.343 -6.983,-3.958 -8.569,-6.135 1.327,-4.833 7.796,-9.709 11.974,-8.856 z"
   id="path145" />
						<g
   id="g157">
							<g
   id="g147">
								<path
   style="fill:#ced7db"
   d="m 239.94,227.594 c 1.701,0 3.264,0.576 4.519,1.536 -1.362,-1.782 -3.504,-2.936 -5.92,-2.936 -4.118,0 -7.455,3.338 -7.455,7.455 0,2.416 1.154,4.558 2.936,5.92 -0.959,-1.255 -1.536,-2.818 -1.536,-4.519 0,-4.118 3.338,-7.456 7.456,-7.456 z"
   id="path146" />
								<path
   style="fill:#afbdc4"
   d="m 245.994,233.649 c 0,-1.701 -0.576,-3.264 -1.536,-4.519 -1.255,-0.959 -2.818,-1.536 -4.519,-1.536 -4.117,0 -7.455,3.338 -7.455,7.455 0,1.701 0.576,3.264 1.536,4.519 1.255,0.959 2.818,1.536 4.519,1.536 4.117,0 7.455,-3.338 7.455,-7.455 z"
   id="path147" />
							</g>
							<g
   id="g156">
								<g
   id="g151">
									<path
   style="fill:#37474f"
   d="m 236.492,231.318 c 0,0.476 -0.386,0.862 -0.862,0.862 -0.476,0 -0.862,-0.386 -0.862,-0.862 0,-0.476 0.386,-0.862 0.862,-0.862 0.476,0 0.862,0.386 0.862,0.862 z"
   id="path148" />
									<path
   style="fill:#37474f"
   d="m 240.37,231.318 c 0,0.476 -0.386,0.862 -0.862,0.862 -0.476,0 -0.862,-0.386 -0.862,-0.862 0,-0.476 0.386,-0.862 0.862,-0.862 0.476,0 0.862,0.386 0.862,0.862 z"
   id="path149" />
									<path
   style="fill:#37474f"
   d="m 238.431,232.785 c 0,0.476 -0.386,0.862 -0.862,0.862 -0.476,0 -0.862,-0.386 -0.862,-0.862 0,-0.476 0.386,-0.862 0.862,-0.862 0.476,0 0.862,0.386 0.862,0.862 z"
   id="path150" />
									<path
   style="fill:#37474f"
   d="m 242.31,232.785 c 0,0.476 -0.386,0.862 -0.862,0.862 -0.476,0 -0.862,-0.386 -0.862,-0.862 0,-0.476 0.386,-0.862 0.862,-0.862 0.476,0 0.862,0.386 0.862,0.862 z"
   id="path151" />
								</g>
								<g
   id="g155">
									<path
   style="fill:#37474f"
   d="m 236.492,234.154 c 0,0.476 -0.386,0.862 -0.862,0.862 -0.476,0 -0.862,-0.386 -0.862,-0.862 0,-0.476 0.386,-0.862 0.862,-0.862 0.476,0 0.862,0.386 0.862,0.862 z"
   id="path152" />
									<path
   style="fill:#37474f"
   d="m 240.37,234.154 c 0,0.476 -0.386,0.862 -0.862,0.862 -0.476,0 -0.862,-0.386 -0.862,-0.862 0,-0.476 0.386,-0.862 0.862,-0.862 0.476,0 0.862,0.386 0.862,0.862 z"
   id="path153" />
									<path
   style="fill:#37474f"
   d="m 238.431,235.621 c 0,0.476 -0.386,0.862 -0.862,0.862 -0.476,0 -0.862,-0.386 -0.862,-0.862 0,-0.476 0.386,-0.862 0.862,-0.862 0.476,0 0.862,0.386 0.862,0.862 z"
   id="path154" />
									<path
   style="fill:#37474f"
   d="m 242.31,235.621 c 0,0.476 -0.386,0.862 -0.862,0.862 -0.476,0 -0.862,-0.386 -0.862,-0.862 0,-0.476 0.386,-0.862 0.862,-0.862 0.476,0 0.862,0.386 0.862,0.862 z"
   id="path155" />
								</g>
							</g>
						</g>
					</g>
				</g>
			</g>
		</g>
	</g>
</g>

</svg>
